<svg xmlns="http://www.w3.org/2000/svg" width="24" height="24" viewBox="0 0 24 24">
  <g id="Group_46800" data-name="Group 46800" transform="translate(18 -9)">
    <rect id="Rectangle_19897" data-name="Rectangle 19897" width="24" height="24" transform="translate(-18 9)" fill="none"/>
    <g id="Group_46792" data-name="Group 46792" transform="translate(-66.938 -249.281)">
      <g id="_048-signature" data-name="048-signature" transform="translate(53.623 265.674) rotate(-21)">
        <g id="Group_46785" data-name="Group 46785" transform="translate(0 0)">
          <path id="Path_63559" data-name="Path 63559" d="M11.78,4.079l-.5-.367.1-.14A2.242,2.242,0,0,0,7.776.91L7.1,1.825c1.232-1.608.421-.813-.8,1.085L4.8,4.945a.4.4,0,0,0,.644.475L6.3,4.258l.8-1.085.088-.12L9.511,4.764,7.1,8.032,6.3,9.116l-.553.75L3.427,8.155l2.023-2.73a.4.4,0,0,0-.644-.475L1.064,10.012l-.014.02-.008.011a.408.408,0,0,0-.02.039l-.007.016A.386.386,0,0,0,1,10.144q0,.014-.006.028s0,.009,0,.013L.425,13.63c-.327-.112-.817.712.109.843l.017.014a.42.42,0,0,0,.256.088,1.15,1.15,0,0,0,.479-.164L4.526,12.8a.4.4,0,0,0,.047-.027l0,0a.4.4,0,0,0,.035-.027l.007-.007.028-.028.008-.01.017-.02,1.482-2.009h0l.145-.2c1.819-2.44.325-.52.8-1.085l3.705-5.024.5.366c.2.147.221.22-.022.549L9.509,7.677a.4.4,0,1,0,.644.475l1.774-2.405a1.561,1.561,0,0,0,.317-.648,1.012,1.012,0,0,0-.463-1.019ZM5.274,10.51,4.266,11.877,1.945,10.165,2.952,8.8ZM1.252,13.535l.422-2.575.686.506,1.226.9ZM7.664,2.409l.755-1.024A1.442,1.442,0,0,1,10.74,3.1L9.986,4.12Z" transform="translate(0)" fill="#666" stroke="#666" stroke-width="0.5"/>
        </g>
      </g>
      <g id="_048-signature-2" data-name="048-signature" transform="translate(51.938 276.717)">
        <g id="Group_46785-2" data-name="Group 46785" transform="translate(0 0)">
          <path id="Path_63559-2" data-name="Path 63559" d="M15.989,16.829a1,1,0,0,1-.573-.619c-.121-.249-.345-.711-.876-.608-.432.082-.637.451-.853.841a4.866,4.866,0,0,1-.414.655c-.123.158-.238.248-.324.253-.122.008-.318-.125-.586-.395a1.124,1.124,0,0,0-1.779.014c-.363.319-.5.439-.967,0a.4.4,0,1,0-.545.586,1.308,1.308,0,0,0,2.04.01c.346-.3.391-.344.683-.05a1.721,1.721,0,0,0,1.142.631l.059,0a1.266,1.266,0,0,0,.906-.56,5.6,5.6,0,0,0,.483-.758,2.954,2.954,0,0,1,.248-.4c.021.04.044.087.063.126a1.733,1.733,0,0,0,1.4,1.113l.017.014C16.2,17.749,16.068,16.535,15.989,16.829Z" transform="translate(-8.944 -15.587)" fill="#666" stroke="#666" stroke-width="0.5"/>
        </g>
      </g>
    </g>
  </g>
</svg>
