<svg xmlns="http://www.w3.org/2000/svg" xmlns:xlink="http://www.w3.org/1999/xlink" width="742" height="378" viewBox="0 0 742 378"><defs><linearGradient id="a" x1="8.35" y1="245.85" x2="30.59" y2="268.09" gradientUnits="userSpaceOnUse"><stop offset="0" stop-color="#53d7fe"/><stop offset="1" stop-color="#00bafd"/></linearGradient><linearGradient id="b" x1="17.2" y1="257.93" x2="22.94" y2="250.51" gradientUnits="userSpaceOnUse"><stop offset="0" stop-color="#0081ff"/><stop offset="0.05" stop-color="#0081ff" stop-opacity="0.89"/><stop offset="0.18" stop-color="#0081ff" stop-opacity="0.62"/><stop offset="0.31" stop-color="#0081ff" stop-opacity="0.4"/><stop offset="0.42" stop-color="#0081ff" stop-opacity="0.23"/><stop offset="0.52" stop-color="#0081ff" stop-opacity="0.1"/><stop offset="0.61" stop-color="#0081ff" stop-opacity="0.03"/><stop offset="0.67" stop-color="#0081ff" stop-opacity="0"/></linearGradient></defs><rect x="2" y="27" width="20" height="20" fill="none"/><rect x="2" y="27" width="20" height="20" fill="none"/><rect y="25" width="24" height="24" fill="none"/><path d="M12,29a8,8,0,1,1-8,8,8,8,0,0,1,8-8m0-2A10,10,0,1,0,22,37,10,10,0,0,0,12,27Z"/><path d="M12,40a1,1,0,1,0,1,1,1,1,0,0,0-1-1Z"/><path d="M10,34.17c0-1.29,1.54-1.87,2.62-1.56a1.75,1.75,0,0,1,1.25,1.18,2,2,0,0,1-.6,1.84,13.49,13.49,0,0,1-1.1.9.63.63,0,0,0-.12.11c-.14.19-.05.63-.05.86" fill="none" stroke="#000" stroke-linecap="round" stroke-linejoin="round" stroke-width="2"/><path d="M92.29,16A9,9,0,1,1,80.4,4.25" fill="none" stroke="#111" stroke-linecap="round" stroke-linejoin="round" stroke-width="2"/><path d="M93,13a9,9,0,0,0-9-9v9Z" fill="none" stroke="#111" stroke-linecap="round" stroke-linejoin="round" stroke-width="2"/><rect x="72" y="1" width="24" height="24" fill="none"/><rect x="72" y="1" width="24" height="24" fill="none"/><path d="M44.73,10.16A10.25,10.25,0,0,1,45,12.5a9,9,0,1,1-4.23-7.65" fill="none" stroke="#111" stroke-linecap="round" stroke-linejoin="round" stroke-width="2"/><path d="M32,10.5l4,4,10-10" fill="none" stroke="#111" stroke-linecap="round" stroke-linejoin="round" stroke-width="2"/><rect x="24" y="1" width="24" height="24" fill="none"/><rect x="120" y="25" width="24" height="24" fill="none"/><polyline points="128 38.5 131 35.5 133 37.5 138 32.5" fill="none" stroke="#000" stroke-linecap="round" stroke-linejoin="round" stroke-width="2"/><polyline points="125 31 125 44 138 44" fill="none" stroke="#111" stroke-linecap="round" stroke-linejoin="round" stroke-width="2"/><rect x="72" y="25" width="24" height="24" fill="none"/><path d="M81,31a2,2,0,1,1-2,2,2,2,0,0,1,2-2m0-2a4,4,0,1,0,4,4,4,4,0,0,0-4-4Z"/><path d="M89,34a1,1,0,1,1-1,1,1,1,0,0,1,1-1m0-2a3,3,0,1,0,3,3,3,3,0,0,0-3-3Z"/><rect x="72" y="25" width="24" height="24" fill="none"/><path d="M75,45V43.5C75,41,76.74,39,78.86,39h4.28C85.26,39,87,41,87,43.5V45" fill="none" stroke="#000" stroke-linecap="round" stroke-miterlimit="10" stroke-width="2"/><path d="M86.1,40.13a2.34,2.34,0,0,1,.79-.13h3.22A3.17,3.17,0,0,1,93,43.38V44" fill="none" stroke="#000" stroke-linecap="round" stroke-miterlimit="10" stroke-width="2"/><polyline points="103 33.5 100 36.5 103 39.5" fill="none" stroke="#111" stroke-linecap="round" stroke-linejoin="round" stroke-width="2"/><polyline points="113 33.5 116 36.5 113 39.5" fill="none" stroke="#111" stroke-linecap="round" stroke-linejoin="round" stroke-width="2"/><line x1="110" y1="29.5" x2="106" y2="43.5" fill="none" stroke="#111" stroke-linecap="round" stroke-linejoin="round" stroke-width="2"/><rect x="96" y="25" width="24" height="24" fill="none"/><rect x="144" y="25" width="24" height="24" fill="none"/><path d="M152,34h11a1,1,0,0,1,1,1v8a1,1,0,0,1-1,1H149a1,1,0,0,1-1-1V31a1,1,0,0,1,1-1h7l1,1" fill="none" stroke="#000" stroke-linecap="round" stroke-linejoin="round" stroke-width="2"/><path d="M21,12.5,12.67,4.76a1,1,0,0,0-1.34,0L3,12.5" fill="none" stroke="#000" stroke-linecap="round" stroke-linejoin="round" stroke-width="2"/><path d="M5,11v9a1,1,0,0,0,1,1H9a1,1,0,0,0,1-1V16h4v4a1,1,0,0,0,1,1h3a1,1,0,0,0,1-1V11" fill="none" stroke="#000" stroke-linejoin="round" stroke-width="2"/><rect y="1" width="24" height="24" fill="none"/><rect x="48" y="1" width="24" height="24" fill="none"/><line x1="58" y1="19" x2="68" y2="19" fill="none" stroke="#000" stroke-linecap="round" stroke-miterlimit="10" stroke-width="2"/><line x1="58" y1="13" x2="68" y2="13" fill="none" stroke="#000" stroke-linecap="round" stroke-miterlimit="10" stroke-width="2"/><line x1="58" y1="7" x2="68" y2="7" fill="none" stroke="#000" stroke-linecap="round" stroke-miterlimit="10" stroke-width="2"/><circle cx="53" cy="7" r="2"/><circle cx="53" cy="13" r="2"/><circle cx="53" cy="19" r="2"/><path d="M96,1h24V25H96Z" fill="none"/><path d="M106.4,4.82a1.72,1.72,0,0,1,3.35,0,1.73,1.73,0,0,0,2.08,1.27,1.77,1.77,0,0,0,.49-.21,1.73,1.73,0,0,1,2.37,2.37,1.72,1.72,0,0,0,.57,2.37,1.87,1.87,0,0,0,.49.2,1.72,1.72,0,0,1,0,3.35,1.74,1.74,0,0,0-1.27,2.09,1.77,1.77,0,0,0,.21.49,1.73,1.73,0,0,1-2.37,2.37,1.72,1.72,0,0,0-2.37.57,1.87,1.87,0,0,0-.2.49,1.72,1.72,0,0,1-3.35,0,1.74,1.74,0,0,0-2.09-1.27,1.77,1.77,0,0,0-.49.21,1.73,1.73,0,0,1-2.37-2.37,1.72,1.72,0,0,0-.57-2.37,1.74,1.74,0,0,0-.49-.2,1.72,1.72,0,0,1,0-3.35,1.74,1.74,0,0,0,1.27-2.09,1.51,1.51,0,0,0-.21-.49,1.73,1.73,0,0,1,2.37-2.37A1.73,1.73,0,0,0,106.4,4.82Z" fill="none" stroke="#000" stroke-linecap="round" stroke-linejoin="round" stroke-width="2"/><circle cx="108" cy="12.5" r="3" fill="none" stroke="#000" stroke-linecap="round" stroke-linejoin="round" stroke-width="2"/><rect x="134" y="15" width="6" height="6" rx="1" fill="none" stroke="#000" stroke-linecap="round" stroke-miterlimit="10" stroke-width="2"/><rect x="134" y="5" width="6" height="6" rx="1" fill="none" stroke="#000" stroke-linecap="round" stroke-miterlimit="10" stroke-width="2"/><rect x="124" y="15" width="6" height="6" rx="1" fill="none" stroke="#000" stroke-linecap="round" stroke-miterlimit="10" stroke-width="2"/><rect x="124" y="5" width="6" height="6" rx="1" fill="none" stroke="#000" stroke-linecap="round" stroke-miterlimit="10" stroke-width="2"/><rect x="120" y="1" width="24" height="24" fill="none"/><rect x="144" y="1" width="24" height="24" fill="none"/><line x1="149" y1="18" x2="163" y2="18" fill="none" stroke="#000" stroke-linecap="round" stroke-linejoin="round" stroke-width="2"/><line x1="149" y1="13" x2="163" y2="13" fill="none" stroke="#000" stroke-linecap="round" stroke-linejoin="round" stroke-width="2"/><line x1="149" y1="8" x2="163" y2="8" fill="none" stroke="#000" stroke-linecap="round" stroke-linejoin="round" stroke-width="2"/><rect x="168" y="1" width="24" height="24" fill="none"/><line x1="180" y1="6" x2="180" y2="20" fill="none" stroke="#000" stroke-linecap="round" stroke-linejoin="round" stroke-width="2"/><line x1="173" y1="13" x2="187" y2="13" fill="none" stroke="#000" stroke-linecap="round" stroke-linejoin="round" stroke-width="2"/><rect x="192" y="1" width="24" height="24" fill="none"/><line x1="197" y1="13" x2="211" y2="13" fill="none" stroke="#000" stroke-linecap="round" stroke-linejoin="round" stroke-width="2"/><rect x="24" y="25" width="24" height="24" fill="none"/><path d="M42,40V34.82c0-4.28-3.47-7.64-7.39-6.64-2.73.7-4.61,3.64-4.61,6.9V40l-2.26,2.26a.43.43,0,0,0,.31.74H44a.43.43,0,0,0,.31-.74L42,40" fill="none" stroke="#000" stroke-linecap="round" stroke-linejoin="round" stroke-width="2"/><path d="M37.65,44.94a3.35,3.35,0,0,1-1.85.61A3.24,3.24,0,0,1,34,45" fill="none" stroke="#000" stroke-linecap="round" stroke-linejoin="round" stroke-width="2"/><rect x="48" y="25" width="24" height="24" fill="none"/><circle cx="54" cy="36.5" r="2"/><circle cx="60" cy="36.5" r="2"/><circle cx="66" cy="36.5" r="2"/><line x1="253.05" y1="7.58" x2="257.25" y2="11.97" fill="none" stroke="#000" stroke-miterlimit="10" stroke-width="2"/><line x1="246" y1="14.5" x2="250" y2="18.5" fill="none" stroke="#000" stroke-miterlimit="10" stroke-width="2"/><path d="M258,12l-7.77,7.77a1,1,0,0,1-.55.28l-4.3.72a1,1,0,0,1-1.15-1.15l.72-4.3a1,1,0,0,1,.28-.55L253,7h0l1.59-1.58a2,2,0,0,1,2.83,0l2.17,2.17a2,2,0,0,1,0,2.82L258,12Z" fill="none" stroke="#000" stroke-linecap="round" stroke-linejoin="round" stroke-width="2"/><rect x="240" y="1" width="24" height="24" fill="none"/><path d="M282,11v8a2,2,0,0,1-2,2h-8a2,2,0,0,1-2-2V11" fill="none" stroke="#000" stroke-linecap="round" stroke-width="2"/><line x1="268" y1="8" x2="284" y2="8" fill="none" stroke="#000" stroke-linecap="round" stroke-width="2"/><path d="M273,8V7a2,2,0,0,1,2-2h2a2,2,0,0,1,2,2V8" fill="none" stroke="#000" stroke-linecap="round" stroke-width="2"/><rect x="264" y="1" width="24" height="24" fill="none"/><line x1="278" y1="13" x2="278" y2="17" fill="none" stroke="#000" stroke-linecap="round" stroke-width="2"/><line x1="274" y1="13" x2="274" y2="17" fill="none" stroke="#000" stroke-linecap="round" stroke-width="2"/><rect x="218" y="3" width="20" height="20" fill="none"/><line x1="222" y1="6.5" x2="234" y2="18.5" fill="none" stroke="#000" stroke-linecap="round" stroke-linejoin="round" stroke-width="2"/><line x1="234" y1="6.5" x2="222" y2="18.5" fill="none" stroke="#000" stroke-linecap="round" stroke-linejoin="round" stroke-width="2"/><rect x="218" y="3" width="20" height="20" fill="none"/><rect x="216" y="1" width="24" height="24" fill="none"/><path d="M168,25h24V49H168Z" fill="none"/><path d="M182,28v4a1,1,0,0,0,1,1h4" fill="none" stroke="#000" stroke-linecap="round" stroke-linejoin="round" stroke-width="2"/><path d="M185,46H175a2,2,0,0,1-2-2V30a2,2,0,0,1,2-2h7l5,5V44A2,2,0,0,1,185,46Z" fill="none" stroke="#000" stroke-linecap="round" stroke-linejoin="round" stroke-width="2"/><path d="M298.5,6a5.5,5.5,0,1,1-5.5,5.5A5.51,5.51,0,0,1,298.5,6m0-2a7.5,7.5,0,1,0,7.5,7.5A7.5,7.5,0,0,0,298.5,4Z"/><line x1="308" y1="20.5" x2="304" y2="16.5" fill="none" stroke="#000" stroke-linecap="round" stroke-linejoin="round" stroke-width="2"/><rect x="288" y="1" width="24" height="24" fill="none"/><rect x="312" y="1" width="24" height="24" fill="none"/><rect x="317" y="5" width="14" height="14" rx="7" fill="none" stroke="#000" stroke-miterlimit="10" stroke-width="2"/><rect x="323" y="8" width="2" height="2" rx="1"/><rect x="323" y="11" width="2" height="5" rx="1"/><rect x="312" y="1" width="24" height="24" fill="none"/><path d="M340,8.06V18.94A1.93,1.93,0,0,0,341.76,21h12.48A1.93,1.93,0,0,0,356,18.94V8.06A1.93,1.93,0,0,0,354.24,6H341.76A1.93,1.93,0,0,0,340,8.06Z" fill="none" stroke="#000" stroke-linecap="round" stroke-linejoin="round" stroke-width="2"/><line x1="341" y1="11" x2="355" y2="11" fill="none" stroke="#000" stroke-linecap="round" stroke-linejoin="round" stroke-width="2"/><line x1="344" y1="4" x2="344" y2="6" fill="none" stroke="#000" stroke-linecap="round" stroke-linejoin="round" stroke-width="2"/><line x1="352" y1="4" x2="352" y2="6" fill="none" stroke="#000" stroke-linecap="round" stroke-linejoin="round" stroke-width="2"/><rect x="336" y="1" width="24" height="24" fill="none"/><rect x="192" y="25" width="24" height="24" fill="none"/><path d="M210.39,27.68l-13.9,4a2,2,0,0,0-.43,3.65l5.33,3.05a2,2,0,0,1,.74.74l3.05,5.33a2,2,0,0,0,3.65-.43l4-13.9A2,2,0,0,0,210.39,27.68Z" fill="none" stroke="#000" stroke-miterlimit="10" stroke-width="2" fill-rule="evenodd"/><line x1="206.1" y1="34.45" x2="201.86" y2="38.69" fill="none" stroke="#000" stroke-linecap="round" stroke-miterlimit="10" stroke-width="2"/><rect x="192" y="25" width="24" height="24" fill="none"/><rect x="216" y="25" width="24" height="24" fill="none"/><path d="M232,28h-8.19A4.78,4.78,0,0,0,219,32.78V41a5,5,0,0,0,5,5h8.19A4.78,4.78,0,0,0,237,41.22V33A5,5,0,0,0,232,28Z" fill="none" stroke="#000" stroke-linecap="round" stroke-linejoin="round" stroke-width="2"/><path d="M224,36.5l3,3,5-5" fill="none" stroke="#000" stroke-linecap="round" stroke-linejoin="round" stroke-width="2"/><rect x="240" y="25" width="24" height="24" fill="none"/><path d="M256,28h-8.19A4.78,4.78,0,0,0,243,32.78V41a5,5,0,0,0,5,5h8.19A4.78,4.78,0,0,0,261,41.22V33A5,5,0,0,0,256,28Z" fill="none" stroke="#000" stroke-linecap="round" stroke-linejoin="round" stroke-width="2"/><path d="M249,40l6-6" fill="none" stroke="#000" stroke-linecap="round" stroke-linejoin="round" stroke-width="2"/><path d="M249,34l6,6" fill="none" stroke="#000" stroke-linecap="round" stroke-linejoin="round" stroke-width="2"/><rect y="49" width="24" height="24" fill="none"/><line x1="11" y1="57" x2="21" y2="57" fill="none" stroke="#000" stroke-linecap="round" stroke-miterlimit="10" stroke-width="2"/><line x1="11" y1="62" x2="21" y2="62" fill="none" stroke="#000" stroke-linecap="round" stroke-miterlimit="10" stroke-width="2"/><line x1="11" y1="67" x2="21" y2="67" fill="none" stroke="#000" stroke-linecap="round" stroke-miterlimit="10" stroke-width="2"/><path d="M7.66,52.75a1,1,0,0,0-1.4.09L4.39,55l-.63-.71a1,1,0,1,0-1.5,1.33l1.38,1.56a1,1,0,0,0,1.42.07h0l.08-.08,2.6-3A1,1,0,0,0,7.66,52.75Z"/><path d="M7.66,58.75a1,1,0,0,0-1.4.09L4.39,61l-.63-.71a1,1,0,1,0-1.5,1.33h0l1.38,1.56a1,1,0,0,0,1.42.07h0l.08-.08,2.6-3A1,1,0,0,0,7.66,58.75Z"/><rect x="24" y="49" width="24" height="24" fill="none"/><rect x="27" y="56" width="18" height="10" rx="1.5" fill="none" stroke="#000" stroke-miterlimit="10" stroke-width="2"/><line x1="30" y1="59" x2="30" y2="63" fill="none" stroke="#000" stroke-linecap="round" stroke-miterlimit="10" stroke-width="2"/><rect x="42" y="59.5" height="3" stroke-width="2" stroke="#000" stroke-linecap="round" stroke-linejoin="round"/><rect x="40.5" y="61.5" height="3" stroke-width="2" stroke="#000" stroke-linecap="round" stroke-linejoin="round"/><rect x="48" y="49" width="24" height="24" fill="none"/><rect x="51" y="56" width="18" height="10" rx="1.5" fill="none" stroke="#000" stroke-miterlimit="10" stroke-width="2"/><line x1="54" y1="59" x2="54" y2="63" fill="none" stroke="#000" stroke-linecap="round" stroke-miterlimit="10" stroke-width="2"/><path d="M364.65,54h14.71A1.68,1.68,0,0,1,381,55.71V68.27A1.7,1.7,0,0,1,379.35,70H364.64A1.68,1.68,0,0,1,363,68.29V55.73A1.7,1.7,0,0,1,364.65,54Z" fill="none" stroke="#000" stroke-linecap="square" stroke-miterlimit="10" stroke-width="2"/><path d="M368,52v3" fill="none" stroke="#000" stroke-linecap="round" stroke-linejoin="round" stroke-width="2"/><path d="M376,52v3" fill="none" stroke="#000" stroke-linecap="round" stroke-linejoin="round" stroke-width="2"/><path d="M363,59h18" fill="none" stroke="#000" stroke-miterlimit="10" stroke-width="2"/><rect x="360" y="49" width="24" height="24" fill="none"/><path d="M388.65,54h14.71A1.68,1.68,0,0,1,405,55.71V68.27A1.7,1.7,0,0,1,403.35,70H388.64A1.68,1.68,0,0,1,387,68.29V55.73A1.7,1.7,0,0,1,388.65,54Z" fill="none" stroke="#000" stroke-linecap="square" stroke-miterlimit="10" stroke-width="2"/><path d="M392,52v3" fill="none" stroke="#000" stroke-linecap="round" stroke-linejoin="round" stroke-width="2"/><path d="M400,52v3" fill="none" stroke="#000" stroke-linecap="round" stroke-linejoin="round" stroke-width="2"/><path d="M387,59h18" fill="none" stroke="#000" stroke-miterlimit="10" stroke-width="2"/><rect x="384" y="49" width="24" height="24" fill="none"/><rect x="312" y="49" width="24" height="24" fill="none"/><path d="M330,52H318a3,3,0,0,0-3,3V67a3,3,0,0,0,3,3h12a3,3,0,0,0,3-3V55A3,3,0,0,0,330,52Zm-12,2h12a1,1,0,0,1,1,1v8.36l-3.2-2.73a2.77,2.77,0,0,0-3.52,0L317,66.7V55A1,1,0,0,1,318,54Zm12,14H318.56l7-5.84a.77.77,0,0,1,.93,0L331,66v1A1,1,0,0,1,330,68Z"/><circle cx="320" cy="57" r="1.5"/><path d="M284,60.83a1,1,0,0,0-1,1V67.4a.6.6,0,0,1-.6.6H269.6a.6.6,0,0,1-.6-.6h0V54.6a.6.6,0,0,1,.6-.6h9.57a1,1,0,0,0,0-2H269.6a2.62,2.62,0,0,0-2.6,2.6V67.4a2.62,2.62,0,0,0,2.6,2.6h12.8a2.62,2.62,0,0,0,2.6-2.6V61.83A1,1,0,0,0,284,60.83Z"/><path d="M274.72,59.5a1,1,0,0,0-1.44,1.38l2.22,2.33a1,1,0,0,0,1.41,0l0,0,6.78-7a1,1,0,1,0-1.44-1.4h0l-6,6.26Z"/><rect x="264" y="49" width="24" height="24" fill="none"/><rect x="240" y="49" width="24" height="24" fill="none"/><line x1="252" y1="57" x2="252" y2="61" fill="none" stroke="#000" stroke-miterlimit="10" stroke-width="2"/><path d="M246,64V62a1,1,0,0,1,1-1h10a1,1,0,0,1,1,1v2" fill="none" stroke="#000" stroke-miterlimit="10" stroke-width="2"/><rect x="249" y="52" width="6" height="6" rx="1" fill="none" stroke="#000" stroke-miterlimit="10" stroke-width="2"/><rect x="243" y="64" width="6" height="6" rx="1" fill="none" stroke="#000" stroke-miterlimit="10" stroke-width="2"/><rect x="255" y="64" width="6" height="6" rx="1" fill="none" stroke="#000" stroke-miterlimit="10" stroke-width="2"/><rect x="216" y="49" width="24" height="24" fill="none"/><line x1="226" y1="57" x2="237" y2="57" fill="none" stroke="#000" stroke-linecap="round" stroke-miterlimit="10" stroke-width="2"/><line x1="226" y1="66" x2="237" y2="66" fill="none" stroke="#000" stroke-linecap="round" stroke-miterlimit="10" stroke-width="2"/><line x1="221" y1="60" x2="221" y2="54" fill="none" stroke="#000" stroke-linecap="round" stroke-miterlimit="10" stroke-width="2"/><path d="M219,63h3v3h-3v3h3" fill="none" stroke="#000" stroke-linecap="round" stroke-linejoin="round" stroke-width="2"/><rect x="192" y="49" width="24" height="24" fill="none"/><path d="M205.28,57.78l-4,4a1,1,0,0,0,0,1.42,1,1,0,0,0,1.42,0l4-4a1,1,0,1,0-1.42-1.42Z"/><path d="M204.27,65.89,203,67.16a4.19,4.19,0,0,1-5.58.4,4,4,0,0,1-.54-5.63c.08-.1.18-.2.27-.3l1.42-1.43a1,1,0,1,0-1.42-1.42l-1.27,1.28a6.15,6.15,0,0,0-.67,8.07,6.06,6.06,0,0,0,8.5,1.1,5.37,5.37,0,0,0,.57-.5l1.42-1.42a1,1,0,1,0-1.42-1.42Z"/><path d="M211.65,51.71a6.2,6.2,0,0,0-8.13.68l-1.08,1.1A1.11,1.11,0,0,0,202.2,55l.07.08a1,1,0,0,0,1.42,0h0l1.3-1.31a4.17,4.17,0,0,1,5.57-.4,4,4,0,0,1,.57,5.63,3.06,3.06,0,0,1-.3.32l-1.42,1.43a1,1,0,0,0,0,1.42,1,1,0,0,0,1.42,0l1.42-1.42a6.05,6.05,0,0,0,0-8.57A6.77,6.77,0,0,0,211.65,51.71Z"/><rect x="168" y="49" width="24" height="24" fill="none"/><path d="M183.72,55.1a4.23,4.23,0,0,0-3.65-2c-4,0-5.84,5.41-1,6.88,7.48,2.37,4.78,8,1.1,8a4.88,4.88,0,0,1-4.45-2.22" fill="none" stroke="#000" stroke-linecap="round" stroke-miterlimit="10" stroke-width="2"/><line x1="180" y1="52" x2="180" y2="70" fill="none" stroke="#000" stroke-linecap="round" stroke-miterlimit="10" stroke-width="2"/><rect x="144" y="49" width="24" height="24" fill="none"/><line x1="162.75" y1="53.75" x2="149.25" y2="67.25" fill="none" stroke="#000" stroke-linecap="round" stroke-linejoin="round" stroke-width="2"/><circle cx="151.5" cy="56" r="2.25" fill="none" stroke="#000" stroke-linecap="round" stroke-linejoin="round" stroke-width="2"/><circle cx="160.5" cy="65" r="2.25" fill="none" stroke="#000" stroke-linecap="round" stroke-linejoin="round" stroke-width="2"/><rect x="120" y="49" width="24" height="24" fill="none"/><line x1="123" y1="67" x2="123" y2="55" fill="none" stroke="#000" stroke-linecap="round" stroke-miterlimit="10" stroke-width="2"/><line x1="141" y1="67" x2="141" y2="55" fill="none" stroke="#000" stroke-linecap="round" stroke-miterlimit="10" stroke-width="2"/><line x1="132" y1="61" x2="132" y2="55" fill="none" stroke="#000" stroke-linecap="round" stroke-miterlimit="10" stroke-width="2"/><line x1="127" y1="67" x2="127" y2="61" fill="none" stroke="#000" stroke-linecap="round" stroke-miterlimit="10" stroke-width="2"/><line x1="132" y1="55" x2="127" y2="55" fill="none" stroke="#000" stroke-linecap="round" stroke-miterlimit="10" stroke-width="2"/><line x1="132" y1="61" x2="127" y2="61" fill="none" stroke="#000" stroke-linecap="round" stroke-miterlimit="10" stroke-width="2"/><line x1="132" y1="67" x2="127" y2="67" fill="none" stroke="#000" stroke-linecap="round" stroke-miterlimit="10" stroke-width="2"/><line x1="141" y1="55" x2="136" y2="55" fill="none" stroke="#000" stroke-linecap="round" stroke-miterlimit="10" stroke-width="2"/><line x1="141" y1="61" x2="136" y2="61" fill="none" stroke="#000" stroke-linecap="round" stroke-miterlimit="10" stroke-width="2"/><line x1="141" y1="67" x2="136" y2="67" fill="none" stroke="#000" stroke-linecap="round" stroke-miterlimit="10" stroke-width="2"/><rect x="96" y="49" width="24" height="24" fill="none"/><path d="M112.83,55h3.34a.85.85,0,0,1,.83.86h0V66.14a.85.85,0,0,1-.83.86h-3.34a.85.85,0,0,1-.83-.86h0V55.86a.85.85,0,0,1,.83-.86Z" fill="none" stroke="#000" stroke-miterlimit="10" stroke-width="2"/><path d="M103.83,55h3.34a.85.85,0,0,1,.83.86h0V66.14a.85.85,0,0,1-.83.86h-3.34a.85.85,0,0,1-.83-.86h0V55.86a.85.85,0,0,1,.83-.86Z" fill="none" stroke="#000" stroke-miterlimit="10" stroke-width="2"/><rect x="98" y="66" width="2" height="2" rx="0.55"/><rect x="72" y="49" width="24" height="24" fill="none"/><rect x="75" y="56" width="18" height="10" rx="1.5" fill="none" stroke="#000" stroke-miterlimit="10" stroke-width="2"/><path d="M90,59.5l-2,2-2-2" fill="none" stroke="#000" stroke-linecap="round" stroke-linejoin="round" stroke-width="2"/><path d="M307,70H293a1,1,0,0,1-1-1h0a1,1,0,0,1,1-1h14a1,1,0,0,1,1,1h0A1,1,0,0,1,307,70Z"/><path d="M306,68.5v-2a1,1,0,0,1,1-1h0a1,1,0,0,1,1,1v2a1,1,0,0,1-1,1h0A1,1,0,0,1,306,68.5Z"/><path d="M292,68.5v-2a1,1,0,0,1,1-1h0a1,1,0,0,1,1,1v2a1,1,0,0,1-1,1h0A1,1,0,0,1,292,68.5Z"/><path d="M296,57.49a1,1,0,0,1-1-1,1,1,0,0,1,.4-.8l4-3a1,1,0,0,1,1.18,0l4,2.82a1,1,0,0,1,.24,1.4h0a1,1,0,0,1-1.4.24h0L300,54.73l-3.4,2.56A1,1,0,0,1,296,57.49Z"/><path d="M300,64.49a1,1,0,0,1-1-1v-8a1,1,0,0,1,2,0v8A1,1,0,0,1,300,64.49Z"/><rect x="288" y="49" width="24" height="24" fill="none"/><path d="M336,73V49h24V73" fill="none"/><path d="M338,51h20V71H338Z" fill="none"/><path d="M338,51h20V71H338Z" fill="none"/><path d="M336,49h24V73H336Z" fill="none"/><circle cx="348" cy="55.5" r="3" fill="none" stroke="#000" stroke-linecap="round" stroke-miterlimit="10" stroke-width="2"/><path d="M341,69V67.5a4.49,4.49,0,0,1,4.5-4.5h5a4.52,4.52,0,0,1,4.5,4.5V69" fill="none" stroke="#000" stroke-linecap="round" stroke-miterlimit="10" stroke-width="2"/><rect x="360" y="1" width="24" height="24" fill="none"/><polyline points="376 10.5 372 14.5 368 10.5" fill="none" stroke="#000" stroke-linecap="round" stroke-linejoin="round" stroke-width="2"/><path d="M267,36.51a9.74,9.74,0,0,1,18,0" fill="none" stroke="#000" stroke-linecap="round" stroke-linejoin="round" stroke-width="2"/><path d="M285,36.49a9.74,9.74,0,0,1-18,0" fill="none" stroke="#000" stroke-linecap="round" stroke-linejoin="round" stroke-width="2"/><circle cx="276" cy="37" r="3" fill="none" stroke="#000" stroke-linecap="round" stroke-linejoin="round" stroke-width="2"/><rect x="264" y="25" width="24" height="24" fill="none"/><path d="M390.2,10h6.6a2,2,0,0,1,2.2,1.83v7.34A2,2,0,0,1,396.8,21h-6.6a2,2,0,0,1-2.2-1.83V11.83A2,2,0,0,1,390.2,10Z" fill="none" stroke="#000" stroke-linecap="round" stroke-linejoin="round" stroke-width="2"/><path d="M394,7V6.57A1.62,1.62,0,0,1,395.67,5h6.62A1.65,1.65,0,0,1,404,6.57h0v7.9A1.6,1.6,0,0,1,402.33,16H402" fill="none" stroke="#000" stroke-linecap="round" stroke-linejoin="round" stroke-width="2"/><rect x="384" y="1" width="24" height="24" fill="none"/><rect x="408" y="1" width="24" height="24" fill="none"/><path d="M408,1h24V25H408Z" fill="none"/><path d="M420,17.77l-5.24,2.73,1-5.79-4.23-4.1,5.85-.84L420,4.5l2.62,5.27,5.85.84-4.23,4.1,1,5.79Z" fill="none" stroke="#000" stroke-linecap="round" stroke-linejoin="round" stroke-width="2"/><rect x="408" y="25" width="24" height="24" fill="none"/><path d="M408,25h24V49H408Z" fill="none"/><path d="M420,42.72l-6.18,3.22L415,39.11l-5-4.84,6.91-1L420,27.06l3.09,6.21,6.91,1-5,4.84,1.18,6.83Z"/><path d="M438,2.43a6,6,0,1,0,6,6A6,6,0,0,0,438,2.43Zm2,7.38a.45.45,0,0,1,0,.63.45.45,0,0,1-.64,0h0L438,9.06l-1.38,1.38a.43.43,0,0,1-.63,0h0a.45.45,0,0,1,0-.63l1.38-1.38L436,7.05a.45.45,0,1,1,.62-.66l0,0L438,7.79l1.38-1.38a.45.45,0,0,1,.64.64l-1.38,1.38Z" fill="#616767"/><path d="M68.56,173.84l-44.49,29a4.44,4.44,0,0,0,.16,7.53l44.43,26.4a4.45,4.45,0,0,0,4.5,0l49.18-28.69a2.53,2.53,0,0,0,0-4.34l-49.09-30A4.44,4.44,0,0,0,68.56,173.84Z" fill="#09acd8"/><polygon points="125.56 186.91 109 160.23 63 133.55 17 160.23 0.44 186.91 17 196.65 17 205.31 63 232.91 109 205.31 109 196.65 125.56 186.91" fill="#fff"/><polyline points="62.5 232.9 16.5 205.3 16.5 160.22 62.5 187.82 62.5 232.5" fill="none" stroke="#53d7fe" stroke-linecap="round" stroke-linejoin="round"/><polygon points="108.46 160.25 62.5 187.83 16.54 160.25 62.5 133.6 108.46 160.25" fill="none" stroke="#53d7fe" stroke-linecap="round" stroke-linejoin="round"/><polyline points="62.5 187.5 62.5 232.9 108.5 205.3 108.5 160.5" fill="none" stroke="#53d7fe" stroke-linecap="round" stroke-linejoin="round"/><polygon points="16.54 160.25 0 186.91 46.88 214.48 62.5 187.83 16.54 160.25" fill="#fff" stroke="#53d7fe" stroke-linecap="round" stroke-linejoin="round"/><polygon points="108.46 160.25 125 186.91 78.13 214.48 62.5 187.83 108.46 160.25" fill="#fff" stroke="#53d7fe" stroke-linecap="round" stroke-linejoin="round"/><line x1="92.83" y1="169.44" x2="87.7" y2="172.55" fill="none" stroke="#53d7fe" stroke-linecap="round" stroke-linejoin="round"/><line x1="81.01" y1="176.61" x2="70.98" y2="182.69" fill="none" stroke="#53d7fe" stroke-linecap="round" stroke-linejoin="round" stroke-dasharray="7.82 7.82"/><polyline points="67.63 184.72 62.5 187.83 57.38 184.69" fill="none" stroke="#53d7fe" stroke-linecap="round" stroke-linejoin="round"/><line x1="51.3" y1="180.96" x2="42.17" y2="175.36" fill="none" stroke="#53d7fe" stroke-linecap="round" stroke-linejoin="round" stroke-dasharray="7.14 7.14"/><polyline points="39.12 173.5 34.01 170.36 39.05 167.11" fill="none" stroke="#53d7fe" stroke-linecap="round" stroke-linejoin="round"/><line x1="45.19" y1="163.15" x2="54.39" y2="157.21" fill="none" stroke="#53d7fe" stroke-linecap="round" stroke-linejoin="round" stroke-dasharray="7.3 7.3"/><polyline points="57.46 155.23 62.5 151.98 67.7 154.97" fill="none" stroke="#53d7fe" stroke-linecap="round" stroke-linejoin="round"/><line x1="74.34" y1="158.8" x2="84.31" y2="164.54" fill="none" stroke="#53d7fe" stroke-linecap="round" stroke-linejoin="round" stroke-dasharray="7.67 7.67"/><line x1="87.63" y1="166.45" x2="92.83" y2="169.44" fill="none" stroke="#53d7fe" stroke-linecap="round" stroke-linejoin="round"/><polygon points="62.04 188.75 74.91 225.51 108 205.29 108 197.02 77.67 214.48 62.04 188.75" fill="#53d7fe"/><rect y="121" width="130" height="130" fill="none"/><path d="M0,97V73H24V97" fill="none"/><path d="M24,97V73H48V97" fill="none"/><path d="M12.31,92.09c-3.07,0-5.69-.47-5.69-2.33s2.61-3.47,5.69-3.47,5.7,1.6,5.7,3.46-2.61,2.34-5.7,2.34Z" fill="none" stroke="#000" stroke-linecap="round" stroke-linejoin="round" stroke-width="2"/><path d="M12.23,84a3.62,3.62,0,0,0,3.44-5,3.4,3.4,0,0,0-2-2,3.68,3.68,0,0,0-4.5,5.3,3.34,3.34,0,0,0,3,1.72Z" fill="none" stroke="#000" stroke-linecap="round" stroke-linejoin="round" stroke-width="2"/><path d="M18.37,82.63a2.74,2.74,0,0,0-.16-5.34" fill="none" stroke="#000" stroke-linecap="round" stroke-linejoin="round" stroke-width="2"/><path d="M18.92,85.62c1.66,0,3.08,1.13,3.08,2.13a1.56,1.56,0,0,1-1.23,1.42" fill="none" stroke="#000" stroke-linecap="round" stroke-linejoin="round" stroke-width="2"/><path d="M6.26,82.63a2.74,2.74,0,0,1,.15-5.34" fill="none" stroke="#000" stroke-linecap="round" stroke-linejoin="round" stroke-width="2"/><path d="M5.7,85.62c-1.66,0-3.08,1.13-3.08,2.14a1.55,1.55,0,0,0,1.24,1.41" fill="none" stroke="#000" stroke-linecap="round" stroke-linejoin="round" stroke-width="2"/><rect y="73" width="24" height="24" fill="none"/><path d="M72,97V73H96V97" fill="none"/><path d="M72,73H96V97H72Z" fill="none"/><path d="M86,76v4a1,1,0,0,0,1,1h4" fill="none" stroke="#000" stroke-linecap="round" stroke-linejoin="round" stroke-width="2"/><path d="M89,94H79a2,2,0,0,1-2-2V78a2,2,0,0,1,2-2h7l5,5V92A2,2,0,0,1,89,94Z" fill="none" stroke="#000" stroke-linecap="round" stroke-linejoin="round" stroke-width="2"/><path d="M96,97V73h24V97" fill="none"/><line x1="105" y1="85.5" x2="111" y2="88.5" fill="none" stroke="#000" stroke-linecap="round" stroke-linejoin="round" stroke-width="2"/><circle cx="113.5" cy="79" r="2.5" fill="none" stroke="#000" stroke-linecap="round" stroke-linejoin="round" stroke-width="2"/><circle cx="102.5" cy="85" r="2.5" fill="none" stroke="#000" stroke-linecap="round" stroke-linejoin="round" stroke-width="2"/><circle cx="113.5" cy="90" r="2.5" fill="none" stroke="#000" stroke-linecap="round" stroke-linejoin="round" stroke-width="2"/><line x1="111" y1="80.5" x2="105" y2="83.5" fill="none" stroke="#000" stroke-linecap="round" stroke-linejoin="round" stroke-width="2"/><path d="M120,97V73h24V97" fill="none"/><rect x="124" y="77" width="16" height="12" rx="1.78" stroke-width="2" stroke="#000" stroke-linecap="round" stroke-linejoin="round" fill="none"/><line x1="127" y1="93" x2="137" y2="93" fill="none" stroke="#000" stroke-linecap="round" stroke-linejoin="round" stroke-width="2"/><line x1="129" y1="89" x2="129.01" y2="93" fill="none" stroke="#000" stroke-linecap="round" stroke-linejoin="round" stroke-width="2"/><line x1="135" y1="89" x2="135" y2="93" fill="none" stroke="#000" stroke-linecap="round" stroke-linejoin="round" stroke-width="2"/><path d="M128,84h1.33l1.78-3.56,1.78,5.34L134.67,84H136" fill="none" stroke="#000" stroke-linecap="round" stroke-linejoin="round" stroke-width="2"/><rect x="146" y="74" width="20" height="20" fill="none"/><rect x="146" y="74" width="20" height="20" fill="none"/><path d="M163.33,86.78a8,8,0,0,1-15.33,0" fill="none" stroke="#000" stroke-linecap="round" stroke-linejoin="round" stroke-width="2"/><path d="M164,92V87h-5" fill="none" stroke="#000" stroke-linecap="round" stroke-linejoin="round" stroke-width="2"/><path d="M149,82.21a7.6,7.6,0,0,1,9.26-5.45l.26.07a7.86,7.86,0,0,1,5.14,5.35" fill="none" stroke="#000" stroke-linecap="round" stroke-linejoin="round" stroke-width="2"/><path d="M148,78v5h5" fill="none" stroke="#000" stroke-linecap="round" stroke-linejoin="round" stroke-width="2"/><rect x="144" y="73" width="24" height="24" fill="none"/><path d="M168,97V73h24V97" fill="none"/><path d="M186,77H174a1,1,0,0,0-1,1,1,1,0,0,0,.2.6L178,85v6l4,2V85l4.8-6.4a1,1,0,0,0-.2-1.4A1,1,0,0,0,186,77Z" fill="none" stroke="#000" stroke-linecap="round" stroke-linejoin="round" stroke-width="2"/><rect x="168" y="73" width="24" height="24" fill="none"/><path d="M192,73h24V97H192Z" fill="none"/><path d="M195,84h18" fill="none" stroke="#000" stroke-linecap="round" stroke-linejoin="round" stroke-width="2"/><polyline points="200 78 194 84 200 90" fill="none" stroke="#000" stroke-linecap="round" stroke-linejoin="round" stroke-width="2"/><circle cx="452" cy="8.5" r="8" fill="#fff"/><circle cx="452" cy="8.5" r="7" fill="none" stroke="#13b2d8" stroke-width="2"/><circle cx="452" cy="8.5" r="4.8" fill="#13b2d8"/><circle cx="468" cy="8.5" r="8" fill="#fff"/><circle cx="468" cy="8.5" r="7" fill="none" stroke="#000" stroke-width="2"/><rect x="216" y="73" width="24" height="24" fill="none"/><path d="M235.92,82.62a1.15,1.15,0,0,0-.21-.33l-3-3a1,1,0,0,0-1.42,1.42l1.3,1.29H223a3,3,0,0,0-3,3v4a1,1,0,0,0,2,0V85a1,1,0,0,1,1-1h9.59l-1.3,1.29a1,1,0,0,0,1.42,1.42l3-3A1,1,0,0,0,235.92,82.62Z" fill="#111"/><rect x="240" y="73" width="24" height="24" fill="none"/><path d="M244.07,82.62a1.15,1.15,0,0,1,.21-.33l3-3a1,1,0,0,1,1.42,0,1,1,0,0,1,0,1.42L247.41,82H257a3,3,0,0,1,3,3v4a1,1,0,0,1-2,0V85a1,1,0,0,0-1-1h-9.59l1.29,1.29a1,1,0,0,1,0,1.42,1,1,0,0,1-1.42,0l-3-3A1.06,1.06,0,0,1,244.07,82.62Z" fill="#111"/><rect x="264" y="73" width="24" height="24" fill="none"/><path d="M276.4,79H272a1,1,0,0,0-1,1V90a1,1,0,0,0,1,1h4.5a3.49,3.49,0,0,0,2.44-6,3.52,3.52,0,0,0,.62-4.23A3.56,3.56,0,0,0,276.4,79Zm.1,10H273V86h3.5a1.5,1.5,0,0,1,0,3Zm0-5H273V81h3.5a1.5,1.5,0,0,1,0,3Z" fill="#1e1f1f"/><rect x="288" y="73" width="24" height="24" fill="none"/><path d="M300,88.5a5,5,0,0,0,5-5v-5a1,1,0,0,0-2,0v5a3,3,0,0,1-6,0v-5a1,1,0,0,0-2,0v5A5,5,0,0,0,300,88.5Zm5,2.5H295a1,1,0,0,0,0,2h10a1,1,0,0,0,0-2Z" fill="#111"/><rect x="312" y="73" width="24" height="24" fill="none"/><path d="M329,79h-6a1,1,0,0,0,0,2h1.52l-3.2,8H319a1,1,0,0,0,0,2h6a1,1,0,0,0,0-2h-1.52l3.2-8H329a1,1,0,0,0,0-2Z" fill="#111"/><rect x="336" y="73" width="24" height="24" fill="none"/><path d="M351,86h-6a1,1,0,0,0,0,2h2v2a1,1,0,0,0,2,0V88h2a1,1,0,0,0,0-2Zm2-7H343a1,1,0,0,0,0,2h4v2a1,1,0,0,0,2,0V81h4a1,1,0,0,0,0-2Z" fill="#111"/><rect x="360" y="73" width="24" height="24" fill="none"/><path d="M363.71,88.79a1,1,0,0,0-1.09-.21,1.15,1.15,0,0,0-.33.21,1,1,0,0,0,0,1.42,1.15,1.15,0,0,0,.33.21.92.92,0,0,0,.76,0,1.15,1.15,0,0,0,.33-.21A1,1,0,0,0,363.71,88.79ZM367,81h14a1,1,0,0,0,0-2H367a1,1,0,0,0,0,2Zm-3.29,2.79a1,1,0,0,0-1.09-.21.9.9,0,0,0-.54.54.92.92,0,0,0,0,.76.9.9,0,0,0,.54.54.92.92,0,0,0,.76,0,.9.9,0,0,0,.54-.54.92.92,0,0,0,0-.76A1.15,1.15,0,0,0,363.71,83.79ZM381,84H367a1,1,0,0,0,0,2h14a1,1,0,0,0,0-2Zm-17.29-5.21a1,1,0,0,0-1.42,0,1.15,1.15,0,0,0-.21.33.92.92,0,0,0,0,.76.9.9,0,0,0,.54.54,1,1,0,0,0,1.09-.21,1.15,1.15,0,0,0,.21-.33.92.92,0,0,0,0-.76A1.15,1.15,0,0,0,363.71,78.79ZM381,89H367a1,1,0,0,0,0,2h14a1,1,0,0,0,0-2Z" fill="#111"/><rect x="384" y="73" width="24" height="24" fill="none"/><path d="M387.64,82.06a1,1,0,1,0-1.28,1.54l1.08.9-1.08.9a1,1,0,1,0,1.28,1.54l2-1.67a1,1,0,0,0,.13-1.41.8.8,0,0,0-.13-.13ZM393,77.5a1,1,0,0,0-1,1v12a1,1,0,0,0,2,0v-12A1,1,0,0,0,393,77.5Zm4,2.5h8a1,1,0,0,0,0-2h-8a1,1,0,0,0,0,2Zm8,10h-8a1,1,0,0,0,0,2h8a1,1,0,0,0,0-2Zm0-8h-8a1,1,0,0,0,0,2h8a1,1,0,0,0,0-2Zm0,4h-8a1,1,0,0,0,0,2h8a1,1,0,0,0,0-2Z" fill="#111"/><rect x="408" y="73" width="24" height="24" fill="none"/><path d="M417,77.5a1,1,0,0,0-1,1v12a1,1,0,0,0,2,0v-12A1,1,0,0,0,417,77.5Zm4,2.5h8a1,1,0,0,0,0-2h-8a1,1,0,0,0,0,2Zm-7.23,2.19a1,1,0,0,0-1.41-.13h0l-2,1.67a1,1,0,0,0-.13,1.41.8.8,0,0,0,.13.13l2,1.67a1,1,0,0,0,1.28-1.54h0l-1.08-.9,1.08-.9a1,1,0,0,0,.13-1.41ZM429,82h-8a1,1,0,0,0,0,2h8a1,1,0,0,0,0-2Zm0,4h-8a1,1,0,0,0,0,2h8a1,1,0,0,0,0-2Zm0,4h-8a1,1,0,0,0,0,2h8a1,1,0,0,0,0-2Z" fill="#111"/><rect x="432" y="73" width="24" height="24" fill="none"/><path d="M435,80h18a1,1,0,0,0,0-2H435a1,1,0,0,0,0,2Zm0,4h14a1,1,0,0,0,0-2H435a1,1,0,0,0,0,2Zm18,2H435a1,1,0,0,0,0,2h18a1,1,0,0,0,0-2Zm-4,4H435a1,1,0,0,0,0,2h14a1,1,0,0,0,0-2Z" fill="#111"/><rect x="456" y="73" width="24" height="24" fill="none"/><path d="M465,84h-6a1,1,0,0,0,0,2h2v5a1,1,0,0,0,2,0V86h2a1,1,0,0,0,0-2Zm12-6H465a1,1,0,0,0,0,2h5V91a1,1,0,0,0,2,0V80h5a1,1,0,0,0,0-2Z" fill="#111"/><rect x="480" y="73" width="24" height="24" fill="none"/><path d="M496,79a1,1,0,0,0-1-1H483a1,1,0,0,0,0,2h5V91a1,1,0,0,0,2,0V80h5A1,1,0,0,0,496,79Zm5,5h-6a1,1,0,0,0,0,2h2v5a1,1,0,0,0,2,0V86h2a1,1,0,0,0,0-2Z" fill="#111"/><rect x="575" y="4" width="14" height="14" rx="1" fill="none" stroke="#000" stroke-miterlimit="10" stroke-width="2"/><line x1="582" y1="8" x2="582" y2="14" fill="none" stroke="#000" stroke-linecap="round" stroke-miterlimit="10" stroke-width="2"/><line x1="585" y1="11" x2="579" y2="11" fill="none" stroke="#000" stroke-linecap="round" stroke-miterlimit="10" stroke-width="2"/><rect x="572" y="1" width="20" height="20" fill="none"/><rect x="595" y="4" width="14" height="14" rx="1" fill="none" stroke="#000" stroke-miterlimit="10" stroke-width="2"/><line x1="605" y1="11" x2="599" y2="11" fill="none" stroke="#000" stroke-linecap="round" stroke-miterlimit="10" stroke-width="2"/><rect x="592" y="1" width="20" height="20" fill="none"/><rect x="476" y="1" width="16" height="16" fill="none"/><path d="M484,15.5a1,1,0,0,1-.71-.29l-3-3a1,1,0,0,1,1.42-1.42l2.29,2.3,2.29-2.3a1,1,0,0,1,1.42,1.42l-3,3A1,1,0,0,1,484,15.5Z"/><path d="M484,1.5a1,1,0,0,0-.71.29l-3,3a1,1,0,0,0,1.42,1.42L484,3.91l2.29,2.3a1,1,0,0,0,1.42-1.42l-3-3A1,1,0,0,0,484,1.5Z"/><path d="M72,97V73H48V97" fill="none"/><path d="M60,93.5s7-3.94,7-9.19V78.18L60,75.5l-7,2.68v6.13C53,89.56,60,93.5,60,93.5Z" fill="none" stroke="#000" stroke-linecap="round" stroke-linejoin="round" stroke-width="2"/><rect x="498" y="4" width="3" height="3" rx="1"/><rect x="498" y="9" width="3" height="3" rx="1"/><rect x="498" y="14" width="3" height="3" rx="1"/><rect x="503" y="4" width="3" height="3" rx="1"/><rect x="503" y="9" width="3" height="3" rx="1"/><rect x="503" y="14" width="3" height="3" rx="1"/><rect x="492" y="1" width="20" height="20" fill="none"/><rect x="5" y="242.5" width="32" height="32" rx="8" fill="url(#a)"/><path d="M13,248.34H23.86a6.33,6.33,0,0,1,6.33,6.33v0A6.33,6.33,0,0,1,23.86,261h-6.3a5.69,5.69,0,0,1-5.69-5.69v-5.81A1.17,1.17,0,0,1,13,248.34Z" fill="#fff"/><path d="M13,248.34H23.86a6.33,6.33,0,0,1,6.33,6.33v0A6.33,6.33,0,0,1,23.86,261H18.12a6.25,6.25,0,0,1-6.25-6.25v-5.25A1.17,1.17,0,0,1,13,248.34Z" opacity="0.3" fill="url(#b)"/><path d="M28.45,268.41H23.74a1.71,1.71,0,0,1-1.13-.41l-10.12-8.63a1.75,1.75,0,0,1-.62-1.33v-8.65h0A3.54,3.54,0,0,0,13,251.15l16.25,13.92C30.66,266.12,30.32,268.41,28.45,268.41Z" fill="#fff"/><path d="M19.45,268.51H13.3a1.43,1.43,0,0,1-1.43-1.42V262a.55.55,0,0,1,.91-.42l7,6A.55.55,0,0,1,19.45,268.51Z" fill="#fff"/><polyline points="312 49 312 25 288 25 288 49" fill="none"/><path d="M306,32.76a10.19,10.19,0,0,1,2.74,3.75" fill="none" stroke="#000" stroke-linecap="round" stroke-linejoin="round" stroke-width="2"/><path d="M290.74,36.51a9.79,9.79,0,0,1,9-6A10,10,0,0,1,303,31" fill="none" stroke="#000" stroke-linecap="round" stroke-linejoin="round" stroke-width="2"/><path d="M293.81,40.5a10.33,10.33,0,0,1-3.07-4" fill="none" stroke="#000" stroke-linecap="round" stroke-linejoin="round" stroke-width="2"/><path d="M308.74,36.49a9.75,9.75,0,0,1-9,6,10.16,10.16,0,0,1-2.75-.37" fill="none" stroke="#000" stroke-linecap="round" stroke-linejoin="round" stroke-width="2"/><path d="M303,36.73a2.78,2.78,0,0,1-.16.77h0a3,3,0,0,1-2.83,2" fill="none" stroke="#000" stroke-linecap="round" stroke-linejoin="round" stroke-width="2"/><line x1="291" y1="43.5" x2="306" y2="28.5" fill="none" stroke="#000" stroke-linecap="round" stroke-linejoin="round" stroke-width="2"/><rect y="98" width="32" height="32" fill="none"/><path d="M18.93,117.86l-3-3-3,3" fill="none" stroke="#000" stroke-linecap="round" stroke-linejoin="round" stroke-width="2"/><path d="M16,117v7" fill="none" stroke="#000" stroke-linecap="round" stroke-linejoin="round" stroke-width="2"/><path d="M25.15,121.91a5.93,5.93,0,0,0,2.7-6.53A5.57,5.57,0,0,0,22.51,111H21.12a9,9,0,0,0-7.55-6.91A8.73,8.73,0,0,0,4.74,109,9.67,9.67,0,0,0,6,119.48" fill="none" stroke="#000" stroke-linecap="round" stroke-linejoin="round" stroke-width="2"/><path d="M18.93,117.86l-3-3-3,3" fill="none" stroke="#000" stroke-linecap="round" stroke-linejoin="round" stroke-width="2"/><path d="M312,25h24V49H312Z" fill="none"/><path d="M318,29h4l3,3h5a2,2,0,0,1,2,2v7a2,2,0,0,1-2,2H318a2,2,0,0,1-2-2V31a2,2,0,0,1,2-2" fill="none" stroke="#000" stroke-linecap="round" stroke-linejoin="round" stroke-width="2"/><line x1="322" y1="37" x2="326" y2="37" fill="#707070" stroke="#000" stroke-linecap="round" stroke-linejoin="round" stroke-width="2"/><line x1="324" y1="35" x2="324" y2="39" fill="#707070" stroke="#000" stroke-linecap="round" stroke-linejoin="round" stroke-width="2"/><path d="M340.63,34.38v8.5a1.5,1.5,0,0,0,1.5,1.5h9.5" fill="none" stroke="#111" stroke-linecap="round" stroke-linejoin="round" stroke-width="2"/><rect x="344.63" y="28.38" width="12" height="12" rx="1.5" stroke-width="2" stroke="#111" stroke-linecap="round" stroke-linejoin="round" fill="none"/><line x1="348.8" y1="32.31" x2="352.8" y2="32.31" fill="none" stroke="#111" stroke-linecap="round" stroke-linejoin="round" stroke-width="2"/><line x1="348.8" y1="36.31" x2="352.8" y2="36.31" fill="none" stroke="#111" stroke-linecap="round" stroke-linejoin="round" stroke-width="2"/><rect x="336.63" y="24.38" width="24" height="24" fill="none"/><line x1="395.5" y1="63.5" x2="401.5" y2="63.5" fill="none" stroke="#000" stroke-linecap="round" stroke-miterlimit="10" stroke-width="2"/><rect x="533" width="20" height="20" fill="none"/><rect x="536" y="3" width="14" height="14" rx="2" stroke-width="2" stroke="#111" stroke-linecap="round" stroke-linejoin="round" fill="none"/><rect x="513" width="20" height="20" fill="none"/><path d="M529,2H517a2,2,0,0,0-2,2V16a2,2,0,0,0,2,2h12a2,2,0,0,0,2-2V4A2,2,0,0,0,529,2Zm-1.29,5.71-5,5a1,1,0,0,1-1.42,0l-2-2a1,1,0,0,1,1.42-1.42l1.29,1.3,4.29-4.3a1,1,0,0,1,1.42,1.42Z" fill="#111"/><rect x="408" y="49" width="24" height="24" fill="none"/><path d="M420,53a8,8,0,1,1-8,8,8,8,0,0,1,8-8m0-2a10,10,0,1,0,10,10,10,10,0,0,0-10-10Z"/><line x1="417.17" y1="58.17" x2="422.83" y2="63.83" fill="none" stroke="#000" stroke-linecap="round" stroke-linejoin="round" stroke-width="2"/><line x1="422.83" y1="58.17" x2="417.17" y2="63.83" fill="none" stroke="#000" stroke-linecap="round" stroke-linejoin="round" stroke-width="2"/><path d="M433,49h24V73H433Z" fill="none"/><path d="M450,66h1.22A1.9,1.9,0,0,0,453,64V60a1.9,1.9,0,0,0-1.78-2H438.78A1.9,1.9,0,0,0,437,60v4a1.9,1.9,0,0,0,1.78,2H440" fill="none" stroke="#000" stroke-linecap="round" stroke-linejoin="round" stroke-width="2"/><path d="M450,58V55.33c0-.73-.9-1.33-2-1.33h-6c-1.1,0-2,.6-2,1.33V58" fill="none" stroke="#000" stroke-linecap="round" stroke-linejoin="round" stroke-width="2"/><path d="M441,63h8c.55,0,1,.28,1,.63v3.75c0,.34-.45.62-1,.62h-8c-.55,0-1-.28-1-.62V63.63C440,63.28,440.45,63,441,63Z" fill="none" stroke="#000" stroke-linecap="round" stroke-linejoin="round" stroke-width="2"/><path d="M459.5,60.5h12" fill="none" stroke="#000" stroke-linecap="round" stroke-linejoin="round"/><path d="M467.5,56.5l4,4-4,4" fill="none" stroke="#000" stroke-linecap="round" stroke-linejoin="round"/><path d="M381,40v2a2,2,0,0,1-2,2H367a2,2,0,0,1-2-2V40" fill="none" stroke="#000" stroke-linecap="round" stroke-miterlimit="10" stroke-width="2"/><line x1="373" y1="28" x2="373" y2="38" fill="none" stroke="#000" stroke-linecap="round" stroke-miterlimit="10" stroke-width="2"/><polyline points="368 35 373 39 378 35" fill="none" stroke="#000" stroke-linecap="round" stroke-linejoin="round" stroke-width="2"/><rect x="361" y="24" width="24" height="24" fill="none"/><path d="M58,322.75a5.34,5.34,0,0,1-5.29,5.31H10.34a5.34,5.34,0,0,1-5.29-5.31V285.37a5.34,5.34,0,0,1,5.29-5.31H23.61l5.29,8H52.76a5.34,5.34,0,0,1,5.29,5.31v29.36Z" fill="none" stroke="#c6c6c6" stroke-linecap="round" stroke-linejoin="round" stroke-width="2"/><path d="M31.5,301.81v15.33" fill="none" stroke="#c6c6c6" stroke-linecap="round" stroke-linejoin="round" stroke-width="2"/><path d="M23.91,309.32H39.09" fill="none" stroke="#c6c6c6" stroke-linecap="round" stroke-linejoin="round" stroke-width="2"/><rect x="480" y="97" width="24" height="24" fill="#fff" fill-opacity="0"/><path d="M484,103.32l3.77-2.32,3.78,2.32-3.78,2.33Z" fill="none" stroke="#13b2d8" stroke-linecap="round" stroke-linejoin="round" stroke-width="1.8"/><path d="M494,107h6v4h-6Z" fill="none" stroke="#13b2d8" stroke-linecap="square" stroke-linejoin="round" stroke-width="1.8"/><path d="M486,113h3a2,2,0,0,1,2,2h0a2,2,0,0,1-2,2h-3a2,2,0,0,1-2-2h0A2,2,0,0,1,486,113Z" fill="none" stroke="#13b2d8" stroke-linecap="square" stroke-miterlimit="10" stroke-width="1.8"/><path d="M488,106v7" fill="none" stroke="#13b2d8" stroke-linecap="square" stroke-miterlimit="10" stroke-width="1.8"/><path d="M492,103h5v2" fill="none" stroke="#13b2d8" stroke-linecap="square" stroke-miterlimit="10" stroke-width="1.8"/><path d="M492,115h5v-2" fill="none" stroke="#13b2d8" stroke-linecap="square" stroke-miterlimit="10" stroke-width="1.8"/><path d="M384,121V97h24v24" fill="none"/><rect x="386" y="99" width="20" height="20" fill="none"/><rect x="386" y="99" width="20" height="20" fill="none"/><rect x="398" y="111" width="6" height="6" rx="1" fill="none" stroke="#13b2d8" stroke-linecap="round" stroke-miterlimit="10" stroke-width="2"/><rect x="398" y="101" width="6" height="6" rx="1" fill="none" stroke="#13b2d8" stroke-linecap="round" stroke-miterlimit="10" stroke-width="2"/><rect x="388" y="111" width="6" height="6" rx="1" fill="none" stroke="#13b2d8" stroke-linecap="round" stroke-miterlimit="10" stroke-width="2"/><rect x="388" y="101" width="6" height="6" rx="1" fill="none" stroke="#13b2d8" stroke-linecap="round" stroke-miterlimit="10" stroke-width="2"/><rect x="384" y="97" width="24" height="24" fill="none"/><rect x="432" y="97" width="24" height="24" fill="none"/><path d="M440,111l3-3,2,2,5-5" fill="none" stroke="#13b2d8" stroke-linecap="round" stroke-linejoin="round" stroke-width="2"/><path d="M437,103v13h13" fill="none" stroke="#13b2d8" stroke-linecap="round" stroke-linejoin="round" stroke-width="2"/><rect x="456" y="97" width="24" height="24" fill="#fff" fill-opacity="0"/><path d="M463.8,109.87H460V100h14.8v5.15" fill="none" stroke="#13b2d8" stroke-miterlimit="10" stroke-width="2"/><circle cx="467.24" cy="104.62" r="0.94" fill="none" stroke="#13b2d8" stroke-linecap="square" stroke-miterlimit="10" stroke-width="2"/><path d="M466.3,109.65v2.93c0,1.22,2,2.2,4.4,2.2s4.4-1,4.4-2.2v-2.93" fill="none" stroke="#13b2d8" stroke-miterlimit="10" stroke-width="1.8"/><path d="M466.3,112.58v2.93c0,1.22,2,2.2,4.4,2.2s4.4-1,4.4-2.2v-2.93" fill="none" stroke="#13b2d8" stroke-miterlimit="10" stroke-width="1.8"/><ellipse cx="470.71" cy="109.34" rx="4.41" ry="1.89" fill="none" stroke="#13b2d8" stroke-linecap="square" stroke-miterlimit="10" stroke-width="1.8"/><rect x="408" y="97" width="24" height="24" fill="#fff" fill-opacity="0"/><circle cx="424.51" cy="107.65" r="2.11" fill="none" stroke="#13b2d8" stroke-linecap="square" stroke-miterlimit="10" stroke-width="1.8"/><circle cx="418.64" cy="103.11" r="2.11" fill="none" stroke="#13b2d8" stroke-linecap="square" stroke-miterlimit="10" stroke-width="1.8"/><path d="M421.69,112.2H426c2.19,0,2.33,1.69,2.33,1.69l-9.14,3.81a2.14,2.14,0,0,1-1.88-.1L412,114.73v-5.91h.78c.85,0,3,.37,3.88,1.69H419a3.26,3.26,0,0,1,3.11,3.38h-5.44" fill="none" stroke="#13b2d8" stroke-miterlimit="10" stroke-width="1.8"/><rect x="312" y="97" width="24" height="24" fill="none"/><rect x="312" y="97" width="24" height="24" fill="none"/><circle cx="321" cy="105" r="4" fill="none"/><circle cx="321" cy="105" r="3" fill="none" stroke="#13b2d8" stroke-miterlimit="10" stroke-width="2"/><circle cx="329" cy="107" r="3" fill="none"/><circle cx="329" cy="107" r="2" fill="none" stroke="#13b2d8" stroke-miterlimit="10" stroke-width="2"/><path d="M315,117v-1.47c0-2.48,1.74-4.5,3.86-4.5h4.28c2.12,0,3.86,2,3.86,4.5V117" fill="none" stroke="#13b2d8" stroke-linecap="round" stroke-miterlimit="10" stroke-width="2"/><path d="M326.1,112.63a2.34,2.34,0,0,1,.79-.13h3.22a3.17,3.17,0,0,1,2.89,3.38V117" fill="none" stroke="#13b2d8" stroke-linecap="round" stroke-miterlimit="10" stroke-width="2"/><rect x="336" y="97" width="24" height="24" fill="none"/><path d="M344,106h11a1,1,0,0,1,1,1v8a1,1,0,0,1-1,1H341a1,1,0,0,1-1-1V103a1,1,0,0,1,1-1h7l1,1" fill="none" stroke="#13b2d8" stroke-linecap="round" stroke-linejoin="round" stroke-width="2"/><path d="M372,102.74a6.44,6.44,0,0,0-6.36,6.53h1.81a4.55,4.55,0,1,1,9.1,0h1.81a6.44,6.44,0,0,0-6.36-6.53Zm.91,8.68a2.35,2.35,0,0,0,1.36-2.14,2.27,2.27,0,1,0-4.54-.17v.17a2.37,2.37,0,0,0,1.36,2.14v3.08l-3.1,3.18,1.28,1.32,2.73-2.8,2.73,2.8,1.28-1.32-3.1-3.18ZM372,99a10.15,10.15,0,0,0-10,10.28h1.82a8.18,8.18,0,1,1,16.36,0H382A10.15,10.15,0,0,0,372,99Z" fill="#13b2d8"/><rect x="360" y="97" width="24" height="24" fill="#fff" fill-opacity="0"/><rect x="612" y="1" width="20" height="20" fill="#fff" fill-opacity="0"/><path d="M614.88,13.44l2.79,2.78L626,5.78" fill="none" stroke="#707070" stroke-linecap="round" stroke-linejoin="round" stroke-width="2"/><path d="M629.12,9.06H628" fill="none" stroke="#707070" stroke-linecap="round" stroke-miterlimit="10" stroke-width="2"/><path d="M629.12,12.5h-4.6" fill="none" stroke="#707070" stroke-linecap="round" stroke-miterlimit="10" stroke-width="2"/><path d="M629.12,15.94h-6.89" fill="none" stroke="#707070" stroke-linecap="round" stroke-miterlimit="10" stroke-width="2"/><path d="M648.83,7V15h-2.49v2.49L642.62,15H642" fill="none" stroke="#707070" stroke-linecap="round" stroke-linejoin="round" stroke-width="1.8"/><path d="M646.35,4.48H635.17v8.07h2.49v3.11L642,12.55h4.35Z" fill="none" stroke="#707070" stroke-linecap="round" stroke-linejoin="round" stroke-width="1.8"/><rect x="632" y="1" width="20" height="20" fill="none"/><rect x="672" y="1" width="22" height="22" fill="#fff" opacity="0"/><path d="M686.21,5.78V16.24a3.64,3.64,0,1,1-7.28,0V4.88a2.28,2.28,0,1,1,4.55,0v9.54a.91.91,0,1,1-1.82,0V5.78H680.3v8.64a2.27,2.27,0,1,0,4.54,0V4.88a3.64,3.64,0,1,0-7.27,0V16.24a5,5,0,1,0,10,0V5.78Z" fill="#9ea5a6"/><rect x="694" y="1" width="22" height="22" fill="#fff" opacity="0"/><g opacity="0.38"><path d="M707.38,22a.94.94,0,0,1-.85-.53l-2.83-5.65a1,1,0,0,1,.07-1l4.56-6.18-6.18,4.56a1,1,0,0,1-1,.07l-5.66-2.83a1,1,0,0,1-.42-1.28,1,1,0,0,1,.52-.46l18.1-6.67a1,1,0,0,1,1.22.56.94.94,0,0,1,0,.66l-6.67,18.1a1,1,0,0,1-.84.62Z" fill="#13b2d8"/></g><rect x="694" y="23" width="22" height="22" fill="#fff" opacity="0"/><path d="M707.38,44a.94.94,0,0,1-.85-.53l-2.83-5.65a1,1,0,0,1,.07-1l4.56-6.18-6.18,4.56a1,1,0,0,1-1,.07l-5.66-2.83a1,1,0,0,1-.42-1.28,1,1,0,0,1,.52-.46l18.1-6.67a1,1,0,0,1,1.22.56.94.94,0,0,1,0,.66l-6.67,18.1a1,1,0,0,1-.84.62Z" fill="#13b2d8"/><rect x="705" y="46" width="36" height="36" fill="none" opacity="0"/><path d="M725.4,49,735,59V75.5a3.43,3.43,0,0,1-3.36,3.5H714.36A3.43,3.43,0,0,1,711,75.5v-23a3.43,3.43,0,0,1,3.36-3.5Z" fill="#cc3a14"/><path d="M735,59h-6a3.72,3.72,0,0,1-3.48-3.68V49Z" fill="#f99885"/><g style="isolation:isolate"><g style="isolation:isolate"><path d="M714.79,67v2.9h-1.36V62.12h3a3.06,3.06,0,0,1,2.08.68,2.32,2.32,0,0,1,.77,1.81,2.2,2.2,0,0,1-.76,1.79,3.15,3.15,0,0,1-2.11.64Zm0-1.09h1.64a1.58,1.58,0,0,0,1.1-.35,1.21,1.21,0,0,0,.38-1,1.37,1.37,0,0,0-.38-1,1.45,1.45,0,0,0-1.07-.39h-1.67Z" fill="#fff"/><path d="M720.62,69.94V62.12h2.31a3.72,3.72,0,0,1,1.84.46A3.2,3.2,0,0,1,726,63.89a4.24,4.24,0,0,1,.44,2v.39a4.25,4.25,0,0,1-.44,2,3.13,3.13,0,0,1-1.26,1.29,3.77,3.77,0,0,1-1.88.46ZM722,63.22v5.64h.88a2,2,0,0,0,1.64-.67,2.9,2.9,0,0,0,.59-1.92v-.44a3,3,0,0,0-.56-1.94,1.93,1.93,0,0,0-1.6-.67Z" fill="#fff"/><path d="M732.46,66.63h-3.14v3.31H728V62.12h5v1.1h-3.61v2.32h3.14Z" fill="#fff"/></g></g><rect x="669" y="46" width="36" height="36" fill="none" opacity="0"/><path d="M689.37,49,699,59V75.5a3.43,3.43,0,0,1-3.36,3.5H678.33A3.43,3.43,0,0,1,675,75.5v-23C674.66,46.75,686.31,49.66,689.37,49Z" fill="#2680eb"/><path d="M699,59h-6a3.7,3.7,0,0,1-3.47-3.68V49Z" fill="#85c2ff"/><g style="isolation:isolate"><g style="isolation:isolate"><path d="M689.53,68.36l1.53-7.49h1.72l-2.3,9.95h-1.66l-1.89-7.27L685,70.82h-1.67L681,60.87h1.71l1.55,7.47,1.9-7.47h1.45Z" fill="#fff"/></g></g><rect x="633" y="46" width="36" height="36" fill="none" opacity="0"/><path d="M653.4,49,663,59V75.5a3.43,3.43,0,0,1-3.36,3.5H642.36A3.43,3.43,0,0,1,639,75.5v-23a3.43,3.43,0,0,1,3.36-3.5Z" fill="#1a9228"/><path d="M663,59h-6a3.72,3.72,0,0,1-3.48-3.68V49Z" fill="#74ce7a"/><g style="isolation:isolate"><g style="isolation:isolate"><path d="M651.29,64.6l1.89-3.37H655l-2.73,4.63,2.79,4.7h-1.83l-1.94-3.42-1.95,3.42h-1.83l2.8-4.7-2.74-4.63h1.82Z" fill="#fff"/></g></g><rect x="597" y="46" width="36" height="36" fill="none" opacity="0"/><path d="M617.4,49,627,59V75.5a3.43,3.43,0,0,1-3.36,3.5H606.36A3.43,3.43,0,0,1,603,75.5v-23a3.43,3.43,0,0,1,3.36-3.5Z" fill="#e05a00"/><path d="M627,59h-6a3.72,3.72,0,0,1-3.48-3.68V49Z" fill="#f99885"/><g style="isolation:isolate"><g style="isolation:isolate"><path d="M613.17,67.13v3.69h-1.73V60.87h3.81a3.91,3.91,0,0,1,2.65.86,2.94,2.94,0,0,1,1,2.3,2.82,2.82,0,0,1-1,2.28,4,4,0,0,1-2.69.82Zm0-1.4h2.08a2.07,2.07,0,0,0,1.41-.43,1.61,1.61,0,0,0,.48-1.26,1.7,1.7,0,0,0-.49-1.28,1.88,1.88,0,0,0-1.36-.5h-2.12Z" fill="#fff"/></g></g><rect x="560.03" y="46" width="35.97" height="36" fill="none" opacity="0"/><rect x="560" y="46" width="35.97" height="36" fill="none" opacity="0"/><path d="M580.38,49,590,59V75.5a3.43,3.43,0,0,1-3.36,3.5H569.35A3.42,3.42,0,0,1,566,75.5v-23a3.42,3.42,0,0,1,3.35-3.5Z" fill="#e2a700"/><path d="M590,59h-6a3.71,3.71,0,0,1-3.47-3.68V49Z" fill="#f9e4a7"/><rect x="569.99" y="62" width="14.99" height="2" rx="1" fill="#fff"/><rect x="569.99" y="66" width="14.99" height="2" rx="1" fill="#fff"/><rect x="569.99" y="70" width="14.99" height="2" rx="1" fill="#fff"/><rect x="453" y="17" width="8" height="16" fill="#fff" opacity="0"/><path d="M457.81,30.77V21.39l1,1.15a.86.86,0,0,0,1.13.15.71.71,0,0,0,.33-.58.67.67,0,0,0-.16-.43l-2.44-2.89a.87.87,0,0,0-1.24-.05l-.05.05-2.44,2.79a.66.66,0,0,0,.05.94l.09.07a.88.88,0,0,0,1.14-.13l1-1.13v9.44a.81.81,0,0,0,1.62,0Z" fill="#616767"/><rect x="461" y="17" width="8" height="16" fill="#fff" opacity="0"/><path d="M464.19,19.23v9.38l-1-1.15a.87.87,0,0,0-1.14-.15.68.68,0,0,0-.22.92l.06.09,2.44,2.89a.87.87,0,0,0,1.24.05s0,0,.05-.05l2.44-2.79a.64.64,0,0,0,.17-.44.7.7,0,0,0-.32-.57.88.88,0,0,0-1.14.13l-1,1.13V19.23a.81.81,0,0,0-1.62,0Z" fill="#616767"/><rect x="432" y="27" width="20" height="20" fill="none"/><path d="M440.26,33.52H434.7a.69.69,0,0,1-.7-.69h0V30a.69.69,0,0,1,.7-.69h5.56a.69.69,0,0,1,.7.69h0v2.79a.69.69,0,0,1-.7.69Z" fill="none" stroke="#616767" stroke-miterlimit="10" stroke-width="1.5"/><path d="M440.26,44.65H434.7A.69.69,0,0,1,434,44h0V41.17a.69.69,0,0,1,.7-.69h5.56a.69.69,0,0,1,.7.69h0V44a.69.69,0,0,1-.7.69Z" fill="none" stroke="#616767" stroke-miterlimit="10" stroke-width="1.5"/><path d="M436.78,34.22h1.39v5.56h-1.39Z" fill="#616767"/><path d="M446.52,34h-1.39V32.13h-3.48V30.74h4.18a.69.69,0,0,1,.69.69h0Z" fill="#616767"/><path d="M445.83,43.26h-4.18V41.87h3.48V40h1.39v2.57A.69.69,0,0,1,445.83,43.26Z" fill="#616767"/><path d="M445.83,39.78a.65.65,0,0,1-.36-.1L442,37.6a.71.71,0,0,1-.24-1,.69.69,0,0,1,.24-.24l3.48-2.08a.65.65,0,0,1,.71,0l3.48,2.08a.7.7,0,0,1,.24,1,.69.69,0,0,1-.24.24l-3.48,2.08A.62.62,0,0,1,445.83,39.78Z" fill="none" stroke="#616767" stroke-miterlimit="10" stroke-width="1.5"/><rect x="670" y="23" width="24" height="24" fill="none"/><path d="M677,37h-2v5h5V40h-3Zm-2-4h2V30h3V28h-5Zm12,7h-3v2h5V37h-2Zm-3-12v2h3v3h2V28Z" fill="#616767"/><path d="M651,39h3v3h2V37h-5Zm3-8h-3v2h5V28h-2Zm6,11h2V39h3V37h-5Zm2-11V28h-2v5h5V31Z" fill="#616767"/><rect x="646" y="23" width="24" height="24" fill="none"/><path d="M622,45V21h24V45" fill="none"/><path d="M624,23h20V43H624Z" fill="none"/><path d="M624,23h20V43H624Z" fill="none"/><path d="M625,33l6.43,6.36L643,26.65" fill="none" stroke="#616767" stroke-linecap="round" stroke-linejoin="round" stroke-width="2"/><rect x="643.88" y="1.38" width="24" height="24" fill="none"/><path d="M648.78,14.38H654" fill="none" stroke="#616767" stroke-linecap="round" stroke-miterlimit="10" stroke-width="1.5"/><path d="M648.78,8.63H654" fill="none" stroke="#616767" stroke-linecap="round" stroke-miterlimit="10" stroke-width="1.5"/><path d="M648.78,5.66V20.17H654" fill="none" stroke="#616767" stroke-linecap="round" stroke-linejoin="round" stroke-width="1.5"/><path d="M654.6,7.14h8.18v3H654.6Z" fill="none" stroke="#616767" stroke-linecap="round" stroke-linejoin="round" stroke-width="1.5"/><path d="M654.6,18.68h8.18v3H654.6Z" fill="none" stroke="#616767" stroke-linecap="round" stroke-linejoin="round" stroke-width="1.5"/><path d="M654.6,12.89h8.18v3H654.6Z" fill="none" stroke="#616767" stroke-linecap="round" stroke-linejoin="round" stroke-width="1.5"/><rect x="598" y="21" width="24" height="24" fill="none"/><path d="M616,24H604a3,3,0,0,0-3,3V39a3,3,0,0,0,3,3h12a3,3,0,0,0,3-3V27A3,3,0,0,0,616,24Zm-12,2h12a1,1,0,0,1,1,1v8.36l-3.2-2.73a2.77,2.77,0,0,0-3.52,0L603,38.7V27A1,1,0,0,1,604,26Zm12,14H604.56l7-5.84a.77.77,0,0,1,.93,0L617,38v1A1,1,0,0,1,616,40Z" fill="#9ea7a3"/><circle cx="606" cy="29.5" r="1.5" fill="#9ea7a3"/><rect x="574" y="21" width="24" height="24" fill="none"/><rect x="577" y="27" width="18" height="13.1" rx="0.9" fill="none" stroke="#616767" stroke-linejoin="round" stroke-width="1.8"/><circle cx="582.71" cy="31.48" r="1.08" fill="none" stroke="#616767" stroke-linecap="round" stroke-miterlimit="10" stroke-width="1.3"/><path d="M580.15,36.7V36a1.91,1.91,0,0,1,1.65-2.09h1.82A1.9,1.9,0,0,1,585.27,36v.69" fill="none" stroke="#616767" stroke-linecap="round" stroke-miterlimit="10" stroke-width="1.5"/><line x1="588" y1="33" x2="592" y2="33" fill="none" stroke="#616767" stroke-linecap="round" stroke-width="1.5"/><line x1="588" y1="36" x2="592" y2="36" fill="none" stroke="#616767" stroke-linecap="round" stroke-width="1.5"/><rect x="550" y="21" width="24" height="24" fill="none"/><path d="M554.91,34h5.2" fill="none" stroke="#616767" stroke-linecap="round" stroke-miterlimit="10" stroke-width="1.5"/><path d="M554.91,28.26h5.2" fill="none" stroke="#616767" stroke-linecap="round" stroke-miterlimit="10" stroke-width="1.5"/><path d="M554.91,25.28V39.79h5.2" fill="none" stroke="#616767" stroke-linecap="round" stroke-linejoin="round" stroke-width="1.5"/><path d="M560.73,26.77h8.18v3h-8.18Z" fill="none" stroke="#616767" stroke-linecap="round" stroke-linejoin="round" stroke-width="1.5"/><path d="M560.73,38.31h8.18v3h-8.18Z" fill="none" stroke="#616767" stroke-linecap="round" stroke-linejoin="round" stroke-width="1.5"/><path d="M560.73,32.52h8.18v3h-8.18Z" fill="none" stroke="#616767" stroke-linecap="round" stroke-linejoin="round" stroke-width="1.5"/><rect x="526" y="21" width="24" height="24" fill="none"/><path d="M546.28,34.44a1,1,0,0,0-1.25.65A7.16,7.16,0,1,1,538.16,26a7.19,7.19,0,0,1,4.65,1.67l-2.17-.36a1,1,0,0,0-.32,2l4.24.7h.17a1,1,0,0,0,.34-.06l.1-.06.2-.11.09-.11c0-.05.09-.09.13-.15s0-.1,0-.14a1.34,1.34,0,0,0,.07-.18l.75-4a1,1,0,0,0-2-.38l-.27,1.45a9.21,9.21,0,0,0-6-2.25A9,9,0,1,0,547,35.69a1,1,0,0,0-.68-1.25Z" fill="#616767"/><rect x="713" y="82" width="28" height="28" fill="none"/><path d="M728.92,97h-3.84a1,1,0,0,0-1,1v8.62a1,1,0,0,0,1,1h3.84a1,1,0,0,0,1-1V97.92A1,1,0,0,0,728.92,97Z" fill="#13b2d8"/><path d="M720.29,100.79h-3.83a1,1,0,0,0-1,1v4.79a1,1,0,0,0,1,1h3.83a1,1,0,0,0,1-1v-4.79A1,1,0,0,0,720.29,100.79Z" fill="#13b2d8"/><path d="M737.54,93.13h-3.83a1,1,0,0,0-1,1v12.46a1,1,0,0,0,1,1h3.83a1,1,0,0,0,1-1V94.08A1,1,0,0,0,737.54,93.13Z" fill="#13b2d8"/><path d="M727.68,93.8l6-6v3.44h1.92V85.46a1,1,0,0,0-1-1h-5.75v1.92h3.43L727,91.77l-3.16-3.16a1,1,0,0,0-1.35,0l-4.79,4.8,1.35,1.35,4.12-4.11,3.15,3.15A1,1,0,0,0,727.68,93.8Z" fill="#13b2d8"/><rect x="689" y="82" width="24" height="24" fill="none"/><path d="M701,84a10,10,0,1,0,10,10A10,10,0,0,0,701,84Zm5,10.83h-4.17V99h-1.66V94.83H696V93.17h4.17V89h1.66v4.17H706Z" fill="#ffb82a"/><rect x="665" y="82" width="24" height="24" fill="none"/><path d="M677,84a10,10,0,1,0,10,10A10,10,0,0,0,677,84Zm-1.67,14.51L670.82,94,672,92.82l3.33,3.33L682,89.49l1.18,1.18Z" fill="#25b973"/><path d="M653,84a10,10,0,1,0,10,10A10,10,0,0,0,653,84Zm5.83,10.83h-6.66V88.17h1.66v5h5Z" fill="#f01"/><rect x="641" y="82" width="24" height="24" fill="none"/><rect x="617" y="82" width="24" height="24" fill="#fff" fill-opacity="0"/><path d="M636.77,102.1a.94.94,0,0,1-.94-.72,8.43,8.43,0,0,0-7.39-6.33v1.06a1.68,1.68,0,0,1-1,1.55,1.9,1.9,0,0,1-2-.29l-4.79-4.18a1.67,1.67,0,0,1-.19-2.35,1.7,1.7,0,0,1,.19-.19l4.79-4.18a1.88,1.88,0,0,1,2.06-.28,1.68,1.68,0,0,1,1,1.55v1.11A10.32,10.32,0,0,1,638,99a9.85,9.85,0,0,1-.3,2.36.94.94,0,0,1-.94.72Zm-9.25-9a10.47,10.47,0,0,1,8.35,4,8.53,8.53,0,0,0-8.35-6.4,1,1,0,0,1-.94-.95h0V88l-4.56,4,4.56,4V94a.94.94,0,0,1,.95-.9Z" fill="#616767"/><rect x="622.13" y="118.13" width="48" height="48" fill="none"/><path d="M614,110h64v64H614Z" fill="none"/><path d="M621.77,142.8l27.46,5.5V118a24.42,24.42,0,1,1-27.46,24.83Z" fill="#13b2d8" fill-rule="evenodd" opacity="0.12" style="isolation:isolate"/><path d="M618.9,136.13a24.41,24.41,0,0,1,24.23-21.4V141Z" fill="#bfeaf5" fill-rule="evenodd"/><path d="M678,110h64v64H678Z" fill="none"/><rect x="723.33" y="120.67" width="8" height="34.67" rx="1.5" fill="#13b2d8" opacity="0.12" style="isolation:isolate"/><rect x="710" y="134" width="8" height="21.33" rx="1.5" fill="#13b2d8" opacity="0.12" style="isolation:isolate"/><path d="M691.33,160.67h40a2.67,2.67,0,0,1,.11,5.33H688.67a2.66,2.66,0,0,1-2.67-2.67V120.67a2.67,2.67,0,0,1,5.33-.11v40.11Z" fill="#13b2d8" opacity="0.27" style="isolation:isolate"/><rect x="696.67" y="139.33" width="8" height="16" rx="1.5" fill="#13b2d8" opacity="0.12" style="isolation:isolate"/><rect x="593" y="82" width="24" height="24" fill="none"/><circle cx="605" cy="94" r="10" fill="#13b2d8" stroke="#fff" stroke-miterlimit="10" stroke-width="2"/><path d="M609.83,98.45a.53.53,0,0,1-.53-.4,4.7,4.7,0,0,0-4.1-3.52v.59a.93.93,0,0,1-.57.86,1.06,1.06,0,0,1-1.14-.16l-2.66-2.32a.93.93,0,0,1-.11-1.31.52.52,0,0,1,.11-.1l2.66-2.33a1,1,0,0,1,1.15-.15.93.93,0,0,1,.57.86v.61a5.74,5.74,0,0,1,5.29,5.66,5.28,5.28,0,0,1-.16,1.31.53.53,0,0,1-.53.4Zm-5.15-5a5.86,5.86,0,0,1,4.64,2.24,4.75,4.75,0,0,0-4.64-3.56.52.52,0,0,1-.52-.52h0v-1l-2.54,2.19L604.16,95V94A.52.52,0,0,1,604.68,93.45Z" fill="#fff"/><rect x="569" y="82" width="24" height="24" fill="none"/><circle cx="581" cy="94" r="10" fill="#b41900" stroke="#fff" stroke-miterlimit="10" stroke-width="2"/><path d="M575.59,98.08,581,88.7l5.41,9.38Z" fill="none" stroke="#fff" stroke-linecap="round" stroke-linejoin="round" stroke-width="1.3"/><path d="M581,92.23v2.3" fill="none" stroke="#fff" stroke-linecap="round" stroke-miterlimit="10" stroke-width="1.3"/><circle cx="581" cy="96.18" r="0.7" fill="#fff"/><path d="M557,81h0a12,12,0,0,1,12,12h0a12,12,0,0,1-12,12h0a12,12,0,0,1-12-12h0A12,12,0,0,1,557,81Z" fill="none"/><path d="M557,81.5h-1.23a11.12,11.12,0,0,0-1.74.32l.26,1A10.71,10.71,0,0,1,557,82.5v-1ZM551.27,83h-.15a11.64,11.64,0,0,0-2.23,1.72l.71.71a11,11,0,0,1,2.17-1.66l-.5-.86Zm-4.21,4.18a10.84,10.84,0,0,0-.66,1.32h0v0h0v0h0v0h0v0h0v0h-.14v0h0v0h0c-.1.29-.2.58-.28.88l1,.26a10.43,10.43,0,0,1,1-2.51l-.86-.51Zm-1.56,5.72h0v0h0v0h0v0h0v0h0v0h0v0h0v0h0v0h0v0h0v0h0v0h0v0h0a10.62,10.62,0,0,0,.29,1.53l1-.25A10.25,10.25,0,0,1,546.5,93v-.06Zm2.36,5.25-.87.49a10.8,10.8,0,0,0,.79,1.2h0v0H548v0h0v0h0c.24.29.49.58.76.85l.71-.7a11,11,0,0,1-1.65-2.18Zm3.8,3.86-.51.87a11.57,11.57,0,0,0,2.05,1h.22c.16.06.32.1.49.15l.26-1a10.69,10.69,0,0,1-2.51-1.08Zm7.93,1.14a10.68,10.68,0,0,1-2.59.32h-.12v1h1.31a13.09,13.09,0,0,0,1.66-.29l-.25-1Zm4.73-2.65a10.89,10.89,0,0,1-2.19,1.64l.49.87.16-.1H563a11.08,11.08,0,0,0,2-1.55l-.69-.72Zm2.78-4.65A10.55,10.55,0,0,1,566,98.39l.86.51,0-.09H567v0h0v0h0a11.21,11.21,0,0,0,1.06-2.52l-1-.28Zm1.06-5.65-1,.24A10.19,10.19,0,0,1,567.5,93v.18l1,0v0h0V93h0v0h-.12v0h0v0h0v0h0v0h0c-.05-.33-.12-.65-.2-1ZM565.29,85l-.72.7a10.24,10.24,0,0,1,1.62,2.2l.88-.49a12,12,0,0,0-.72-1.13h0v0h0v0h-.15v0h0a11.38,11.38,0,0,0-.85-1ZM560.22,82l-.28,1a10,10,0,0,1,2.5,1.1l.52-.86-.15-.09h-.23a11.4,11.4,0,0,0-2.36-1ZM557,81.5v1h.24l0-1H557Z" fill="#13b2d8"/><path d="M557,81.5h-1.23a11.12,11.12,0,0,0-1.74.32l.26,1A10.71,10.71,0,0,1,557,82.5v-1ZM551.27,83h-.15a11.64,11.64,0,0,0-2.23,1.72l.71.71a11,11,0,0,1,2.17-1.66l-.5-.86Zm-4.21,4.18a10.84,10.84,0,0,0-.66,1.32h0v0h0v0h0v0h0v0h0v0h-.14v0h0v0h0c-.1.29-.2.58-.28.88l1,.26a10.43,10.43,0,0,1,1-2.51l-.86-.51Zm-1.56,5.72h0v0h0v0h0v0h0v0h0v0h0v0h0v0h0v0h0v0h0v0h0v0h0v0h0a10.62,10.62,0,0,0,.29,1.53l1-.25A10.25,10.25,0,0,1,546.5,93v-.06Zm2.36,5.25-.87.49a10.8,10.8,0,0,0,.79,1.2h0v0H548v0h0v0h0c.24.29.49.58.76.85l.71-.7a11,11,0,0,1-1.65-2.18Zm3.8,3.86-.51.87a11.57,11.57,0,0,0,2.05,1h.22c.16.06.32.1.49.15l.26-1a10.69,10.69,0,0,1-2.51-1.08Zm7.93,1.14a10.68,10.68,0,0,1-2.59.32h-.12v1h1.31a13.09,13.09,0,0,0,1.66-.29l-.25-1Zm4.73-2.65a10.89,10.89,0,0,1-2.19,1.64l.49.87.16-.1H563a11.08,11.08,0,0,0,2-1.55l-.69-.72Zm2.78-4.65A10.55,10.55,0,0,1,566,98.39l.86.51,0-.09H567v0h0v0h0a11.21,11.21,0,0,0,1.06-2.52l-1-.28Zm1.06-5.65-1,.24A10.19,10.19,0,0,1,567.5,93v.18l1,0v0h0V93h0v0h-.12v0h0v0h0v0h0v0h0c-.05-.33-.12-.65-.2-1ZM565.29,85l-.72.7a10.24,10.24,0,0,1,1.62,2.2l.88-.49a12,12,0,0,0-.72-1.13h0v0h0v0h-.15v0h0a11.38,11.38,0,0,0-.85-1ZM560.22,82l-.28,1a10,10,0,0,1,2.5,1.1l.52-.86-.15-.09h-.23a11.4,11.4,0,0,0-2.36-1ZM557,81.5v1h.24l0-1H557Z" fill="#13b2d8"/><path d="M562.2,92.26h-4.46V87.8a.74.74,0,0,0-1.48,0v4.46H551.8a.74.74,0,0,0,0,1.48h4.46V98.2a.74.74,0,0,0,1.48,0V93.74h4.46a.74.74,0,1,0,0-1.48Z" fill="#13b2d8"/><rect x="502" y="21" width="24" height="24" fill="none"/><polyline points="512 29 516 33 512 37" fill="none" stroke="#000" stroke-linecap="round" stroke-linejoin="round" stroke-width="2"/><rect x="284" y="97" width="28" height="28" fill="none"/><circle cx="298" cy="111" r="12" fill="#111" opacity="0.12"/><path d="M296,116a1,1,0,0,1-.71-.29,1,1,0,0,1,0-1.42l3.3-3.29-3.3-3.29a1,1,0,0,1,1.42-1.42l4,4a1,1,0,0,1,0,1.42l-4,4A1,1,0,0,1,296,116Z" fill="#111"/><rect x="256" y="97" width="28" height="28" transform="translate(540 222) rotate(-180)" fill="none"/><circle cx="270" cy="111" r="12" fill="#111" opacity="0.12"/><path d="M272,116a1,1,0,0,0,.71-.29,1,1,0,0,0,0-1.42l-3.3-3.29,3.3-3.29a1,1,0,0,0-1.42-1.42l-4,4a1,1,0,0,0,0,1.42l4,4A1,1,0,0,0,272,116Z" fill="#111"/></svg>