<svg id="IconApp_CongTac" xmlns="http://www.w3.org/2000/svg" xmlns:xlink="http://www.w3.org/1999/xlink" width="235" height="235" viewBox="0 0 235 235">
  <defs>
    <linearGradient id="linear-gradient" x1="1.024" y1="-0.041" x2="0" y2="1" gradientUnits="objectBoundingBox">
      <stop offset="0" stop-color="#5ccdff"/>
      <stop offset="1" stop-color="#1655e8"/>
    </linearGradient>
    <linearGradient id="linear-gradient-2" x1="-0.165" y1="-0.393" x2="1.099" y2="1.248" gradientUnits="objectBoundingBox">
      <stop offset="0" stop-color="#00c2cc"/>
      <stop offset="0.024" stop-color="#09c4cd"/>
      <stop offset="0.048" stop-color="#37cfd7"/>
      <stop offset="0.093" stop-color="#62d9df"/>
      <stop offset="0.142" stop-color="#87e2e7"/>
      <stop offset="0.195" stop-color="#a8eaed"/>
      <stop offset="0.254" stop-color="#c3f0f3"/>
      <stop offset="0.32" stop-color="#d9f6f7"/>
      <stop offset="0.397" stop-color="#eafafa"/>
      <stop offset="0.493" stop-color="#f6fcfd"/>
      <stop offset="0.627" stop-color="#fdfefe"/>
      <stop offset="1" stop-color="#fff"/>
    </linearGradient>
  </defs>
  <path id="Path_82" data-name="Path 82" d="M50,0H185a50,50,0,0,1,50,50V185a50,50,0,0,1-50,50H50A50,50,0,0,1,0,185V50A50,50,0,0,1,50,0Z" fill="url(#linear-gradient)"/>
  <path id="Union_1" data-name="Union 1" d="M-3760.868,358l-26.72-106.846c-1.677-6.559,2.135-11.8,8.533-12.076l30.282-1.131-1.971-7.89c-2.25-8.384,2.974-15.032,11.51-15.055l34.048.444c7-.092,14.056,5.989,15.8,13.268l1.739,7.056,31.307-1.56c4.1-.3,8.325,3.564,9.519,8.513l22.457,88.151a9.924,9.924,0,0,1-4.492,10.613l-118.51,25.06a14.557,14.557,0,0,1-1.853.119C-3754.933,366.665-3759.815,363.235-3760.868,358Zm57.9-100.031a37.434,37.434,0,0,0-17.772,5.755,38.541,38.541,0,0,0-11.456,13.665,31.875,31.875,0,0,0-2.564,18.429,37.042,37.042,0,0,0,7.394,17.831,36.639,36.639,0,0,0,15.022,11.788,35.8,35.8,0,0,0,19.042,3,33.219,33.219,0,0,0,14.961-4.27,27.286,27.286,0,0,0,8.882-7.667c1.072-1.316.552-3.172-.767-5.3l-5.311-4.027-.264-.267a2.642,2.642,0,0,0-3.76.484,20.3,20.3,0,0,1-15.258,8.138,23.951,23.951,0,0,1-12.375-1.71,24.49,24.49,0,0,1-9.374-7.4,23.938,23.938,0,0,1-4.882-11.991,18.743,18.743,0,0,1,1.3-12.4,17.938,17.938,0,0,1,7.355-8.4,25.3,25.3,0,0,1,11.612-3.381,22.391,22.391,0,0,1,15.164,4.433,2.913,2.913,0,0,0,3.769-.414l4.05-4.874a2.94,2.94,0,0,0-.5-4.212,35.083,35.083,0,0,0-21.454-7.325C-3701.1,257.851-3702.033,257.889-3702.967,257.966Zm-37.762-27.259,1.844,8.125,40.294-1.5-1.545-7.673a4.259,4.259,0,0,0-4.021-3.622l-33.966.258a2.438,2.438,0,0,0-.455-.044C-3740.3,226.257-3741.468,228.2-3740.729,230.707Zm-36.51,123.483-21.411-89.438V264.5a6.967,6.967,0,0,1,4.917-8.962l26.393,104.845c.321.652.339,1.29.658,1.945q-.353.027-.7.027A10.473,10.473,0,0,1-3777.239,354.19Z" transform="translate(3829 -173)" stroke="rgba(0,0,0,0)" stroke-miterlimit="10" stroke-width="1" fill="url(#linear-gradient-2)"/>
</svg>
